<?xml version="1.0" encoding="UTF-8"?>
<svg xmlns="http://www.w3.org/2000/svg" viewBox="0 0 870.58 329.47">
  <defs>
    <style>
      .cls-1 {
        fill: var(--logo);
      }
    </style>
  </defs>
  <g>
    <g>
      <path class="cls-1" d="m185.86,115.38c33.46,0,33.4.78,33.4-1.4h25.6v7h-59v-5.6Zm59,9.8c-.27,2.27-.67,4.27-1.2,6h-57.8v-6h59Zm-59,16.2v-4.8h54.4c-6.17,6.17-11.34,4.8-54.4,4.8ZM244.86.59v89.6h-25.6V.59h25.6Zm-25.6,99.8v-9h25.6v9h-25.6Zm0,10.4v-8.2h25.6v8.2h-25.6Z"/>
      <path class="cls-1" d="m279.86,141.38h-27.4l1-4.8h27.4l-1,4.8Zm-25.4-10.2l1.4-6h27.2l-1.2,6h-27.4Zm2.2-10.2l1.6-7h27l-1.4,7h-27.2Zm2.2-10.2l1.8-8.2h26.8l-1.6,8.2h-27Zm2.2-10.4l2-9h26.6l-1.8,9h-26.8ZM282.26.59h26.4l18.8,89.6h-27l-5.2-26.2-5.4,26.2h-26.6L282.26.59Zm20.4,99.8l-2-9h27l2,9h-27Zm2.2,10.4l-1.8-8.2h27l1.8,8.2h-27Zm2,10.2l-1.4-7h27l1.6,7h-27.2Zm2,10.2l-1.2-6h27.2l1.2,6h-27.2Zm29.4,10.2h-27.2l-1-4.8h27.2l1,4.8Z"/>
      <path class="cls-1" d="m346.66.59h23.6l19.6,51.8L410.46.59h22.8v89.6h-25.6v-21.8l-9,21.8h-17.8l-8.8-21.8v21.8h-25.4V.59Zm0,99.8v-9h25.4v9h-25.4Zm0,10.4v-8.2h25.4v8.2h-25.4Zm0,10.2v-7h25.4v7h-25.4Zm0,10.2v-6h25.4v6h-25.4Zm25.4,10.2h-25.4v-4.8h25.4v4.8Zm13-41l-3.6-9h16.8l-3.8,9h-9.4Zm1,2.2h7.6c-4.59,11.07-3.24,11.16-7.6,0Zm21.6-2.2v-9h25.6v9h-25.6Zm0,10.4v-8.2h25.6v8.2h-25.6Zm0,10.2v-7h25.6v7h-25.6Zm0,10.2v-6h25.6v6h-25.6Zm25.6,10.2h-25.6v-4.8h25.6v4.8Z"/>
      <path class="cls-1" d="m443.66.59h23.6l19.6,51.8L507.46.59h22.8v89.6h-25.6v-21.8l-9,21.8h-17.8l-8.8-21.8v21.8h-25.4V.59Zm0,99.8v-9h25.4v9h-25.4Zm0,10.4v-8.2h25.4v8.2h-25.4Zm0,10.2v-7h25.4v7h-25.4Zm0,10.2v-6h25.4v6h-25.4Zm25.4,10.2h-25.4v-4.8h25.4v4.8Zm13-41l-3.6-9h16.8l-3.8,9h-9.4Zm1,2.2h7.6c-4.59,11.07-3.24,11.16-7.6,0Zm21.6-2.2v-9h25.6v9h-25.6Zm0,10.4v-8.2h25.6v8.2h-25.6Zm0,10.2v-7h25.6v7h-25.6Zm0,10.2v-6h25.6v6h-25.6Zm25.6,10.2h-25.6v-4.8h25.6v4.8Z"/>
      <path class="cls-1" d="m540.65.59h61v26h-35.4v30.4h29.4v26h-29.4v7.2h-25.6V.59Zm0,99.8v-9h25.6v9h-25.6Zm0,10.4v-8.2h25.6v8.2h-25.6Zm25.6,4.6h35.4v5.6h-61v-7c25.68,0,25.6-.78,25.6,1.4Zm-25.6,15.8v-6h61v6h-61Zm61,10.2h-61v-4.8h61v4.8Z"/>
      <path class="cls-1" d="m637.65,26.59v63.6h-25.6V.59c85.96,0,71.8-13.54,71.8,89.6h-25.6V26.59h-20.6Zm-25.6,73.8v-9h25.6v9h-25.6Zm0,10.4v-8.2h25.6v8.2h-25.6Zm25.6,4.6c20.69,0,20.6.78,20.6-1.4h25.6v7h-71.8v-7c25.68,0,25.6-.78,25.6,1.4Zm46.2,9.8c-.27,2.27-.67,4.27-1.2,6h-70.6v-6h71.8Zm-71.8,16.2v-4.8h67.2c-6.4,6.4-10.66,4.8-67.2,4.8Zm46.2-41v-9h25.6v9h-25.6Zm0,10.4v-8.2h25.6v8.2h-25.6Z"/>
    </g>
    <g>
      <path class="cls-1" d="m66.4,188.09v26h-20.4v63.6h-25.6v-63.6H0v-26h66.4Zm-46,99.8v-9h25.6v9h-25.6Zm0,10.4v-8.2h25.6v8.2h-25.6Zm0,10.2v-7h25.6v7h-25.6Zm0,10.2v-6h25.6v6h-25.6Zm25.6,10.2h-25.6v-4.8h25.6v4.8Z"/>
      <path class="cls-1" d="m148.6,206.09c0,54.11,1.5,56.37-4.5,60.5-11.46,7.89-13.31-2.96-8.5,11.1h-26c-1.97-5.92-1.4.02-1.4-33.2h14.8v-30.4h-20.6v63.6h-25.6v-89.6c53.39,0,71.8-5.14,71.8,18Zm-71.8,81.8v-9h25.6v9h-25.6Zm0,10.4v-8.2h25.6v8.2h-25.6Zm0,10.2v-7h25.6v7h-25.6Zm0,10.2v-6h25.6v6h-25.6Zm25.6,10.2h-25.6v-4.8h25.6v4.8Zm10.6-41l-3-9h26l3,9h-26Zm3.4,10.4l-2.8-8.2h26l2.8,8.2h-26Zm3.2,10.2l-2.2-7h26.2l2.4,7h-26.4Zm3.4,10.2l-2-6h26.4l2,6h-26.4Zm28.2,5.4l1.6,4.8h-26.4l-1.6-4.8h26.4Z"/>
      <path class="cls-1" d="m184.4,328.89h-27.4l1-4.8h27.4l-1,4.8Zm-25.4-10.2l1.4-6h27.2l-1.2,6h-27.4Zm2.2-10.2l1.6-7h27l-1.4,7h-27.2Zm2.2-10.2l1.8-8.2h26.8l-1.6,8.2h-27Zm2.2-10.4l2-9h26.6l-1.8,9h-26.8Zm21.2-99.8h26.4l18.8,89.6h-27l-5.2-26.2-5.4,26.2h-26.6l19-89.6Zm20.4,99.8l-2-9h27l2,9h-27Zm2.2,10.4l-1.8-8.2h27l1.8,8.2h-27Zm2,10.2l-1.4-7h27l1.6,7h-27.2Zm2,10.2l-1.2-6h27.2l1.2,6h-27.2Zm29.4,10.2h-27.2l-1-4.8h27.2l1,4.8Z"/>
      <path class="cls-1" d="m276.6,267.49v10.2h-25.4v-89.6h20.8l25,68v-68h25.4v89.6h-41.6l-4.2-10.2Zm-25.4,20.4v-9h25.4v9h-25.4Zm0,10.4v-8.2h25.4v8.2h-25.4Zm0,10.2v-7h25.4v7h-25.4Zm0,10.2v-6h25.4v6h-25.4Zm25.4,10.2h-25.4v-4.8h25.4v4.8Zm8.4-41l-3.8-9h41.2v9h-37.4Zm4.2,10.4l-3.4-8.2h36.6v8.2h-33.2Zm4,10.2l-2.8-7h32v7h-29.2Zm4.2,10.2l-2.4-6h27.4v6h-25Zm4.2,10.2l-2-4.8h22.8v4.8h-20.8Z"/>
      <path class="cls-1" d="m332.79,188.09h23.6l19.6,51.8,20.6-51.8h22.8v89.6h-25.6v-21.8l-9,21.8h-17.8l-8.8-21.8v21.8h-25.4v-89.6Zm0,99.8v-9h25.4v9h-25.4Zm0,10.4v-8.2h25.4v8.2h-25.4Zm0,10.2v-7h25.4v7h-25.4Zm0,10.2v-6h25.4v6h-25.4Zm25.4,10.2h-25.4v-4.8h25.4v4.8Zm13-41l-3.6-9h16.8l-3.8,9h-9.4Zm1,2.2h7.6c-4.59,11.07-3.24,11.16-7.6,0Zm21.6-2.2v-9h25.6v9h-25.6Zm0,10.4v-8.2h25.6v8.2h-25.6Zm0,10.2v-7h25.6v7h-25.6Zm0,10.2v-6h25.6v6h-25.6Zm25.6,10.2h-25.6v-4.8h25.6v4.8Z"/>
      <path class="cls-1" d="m429.79,188.09h25.6v89.6h-25.6v-89.6Zm0,99.8v-9h25.6v9h-25.6Zm0,10.4v-8.2h25.6v8.2h-25.6Zm0,10.2v-7h25.6v7h-25.6Zm0,10.2v-6h25.6v6h-25.6Zm25.6,10.2h-25.6v-4.8h25.6v4.8Z"/>
      <path class="cls-1" d="m527.19,214.09h-34.6l26.2,63.6h-28.8l-22.6-55c-1.95-5.2-4.13-24.83,3.4-30.7,6.78-5.29,12.6-3.9,56.4-3.9v26Zm-26.8,88.8c-.84-1.96-4.75-1.4,26.8-1.4v7h-61.4v-5.6h34.6Zm26.8,9.8c-.27,2.27-.67,4.27-1.2,6h-60.2v-6h61.4Zm-61.4,16.2v-4.8h56.8c-6.4,6.4-12.23,4.8-56.8,4.8Zm28.4-41l-3.8-9h28.8l3.8,9h-28.8Zm4.2,10.4l-3.4-8.2h28.8c4.93,10.96,6.47,8.2-25.4,8.2Z"/>
      <path class="cls-1" d="m598.99,214.09h-34.6l26.2,63.6h-28.8l-22.6-55c-1.95-5.2-4.13-24.83,3.4-30.7,6.78-5.29,12.6-3.9,56.4-3.9v26Zm-26.8,88.8c-.84-1.96-4.75-1.4,26.8-1.4v7h-61.4v-5.6h34.6Zm26.8,9.8c-.27,2.27-.67,4.27-1.2,6h-60.2v-6h61.4Zm-61.4,16.2v-4.8h56.8c-6.4,6.4-12.23,4.8-56.8,4.8Zm28.4-41l-3.8-9h28.8l3.8,9h-28.8Zm4.2,10.4l-3.4-8.2h28.8c4.93,10.95,6.5,8.2-25.4,8.2Z"/>
      <path class="cls-1" d="m609.39,188.09h25.6v89.6h-25.6v-89.6Zm0,99.8v-9h25.6v9h-25.6Zm0,10.4v-8.2h25.6v8.2h-25.6Zm0,10.2v-7h25.6v7h-25.6Zm0,10.2v-6h25.6v6h-25.6Zm25.6,10.2h-25.6v-4.8h25.6v4.8Z"/>
      <path class="cls-1" d="m670.99,214.09v63.6h-25.6c0-100.41-10.04-89.6,53.2-89.6,11.95,0,18.6,5.95,18.6,18v71.6h-25.6v-63.6h-20.6Zm-25.6,73.8v-9h25.6v9h-25.6Zm0,10.4v-8.2h25.6v8.2h-25.6Zm25.6,4.6c20.69,0,20.6.78,20.6-1.4h25.6v7h-71.8v-7c25.68,0,25.6-.78,25.6,1.4Zm-24.4,15.8c-.75-2.61-1.2-4.03-1.2-6h71.8c-.27,2.27-.67,4.27-1.2,6h-69.4Zm15.6,10.2c-5.47-.13-9.6-1.87-12.4-4.8h62.8c-6.07,6.36-12.37,5.73-50.4,4.8Zm29.4-41v-9h25.6v9h-25.6Zm0,10.4v-8.2h25.6v8.2h-25.6Z"/>
      <path class="cls-1" d="m752.98,267.49v10.2h-25.4v-89.6h20.8l25,68v-68h25.4v89.6h-41.6l-4.2-10.2Zm-25.4,20.4v-9h25.4v9h-25.4Zm0,10.4v-8.2h25.4v8.2h-25.4Zm0,10.2v-7h25.4v7h-25.4Zm0,10.2v-6h25.4v6h-25.4Zm25.4,10.2h-25.4v-4.8h25.4v4.8Zm8.4-41l-3.8-9h41.2v9h-37.4Zm4.2,10.4l-3.4-8.2h36.6v8.2h-33.2Zm4,10.2l-2.8-7h32v7h-29.2Zm4.2,10.2l-2.4-6h27.4v6h-25Zm4.2,10.2l-2-4.8h22.8v4.8h-20.8Z"/>
      <path class="cls-1" d="m870.58,214.09h-34.6l26.2,63.6h-28.8l-22.6-55c-1.99-5.3-4.1-24.85,3.4-30.7,6.78-5.29,12.6-3.9,56.4-3.9v26Zm-26.8,88.8c-.84-1.96-4.75-1.4,26.8-1.4v7h-61.4v-5.6h34.6Zm26.8,9.8c-.27,2.27-.67,4.27-1.2,6h-60.2v-6h61.4Zm-61.4,16.2v-4.8h56.8c-6.4,6.4-12.22,4.8-56.8,4.8Zm28.4-41l-3.8-9h28.8l3.8,9h-28.8Zm4.2,10.4l-3.4-8.2h28.8c4.93,10.96,6.47,8.2-25.4,8.2Z"/>
    </g>
  </g>
</svg>