<?xml version="1.0" encoding="UTF-8"?>
<svg xmlns="http://www.w3.org/2000/svg" viewBox="0 0 819.35 310.08">
  <defs>
    <style>
      .cls-1 {
				fill: var(--logo7);
      }
      .cls-2 {
				fill: var(--logo2);
      }
      .cls-3 {
				fill: var(--logo4);
      }
      .cls-4 {
				fill: var(--logo5);
      }
      .cls-5 {
				fill: var(--logo6);
      }
      .cls-6 {
				fill: var(--logo3);
      }
    </style>
  </defs>
  <g>
    <g>
      <g>
        <path class="cls-4" d="m174.92,108.59c31.49,0,31.43.73,31.43-1.32h24.09v6.59h-55.53v-5.27Z"/>
        <path class="cls-5" d="m230.45,117.82c-.25,2.13-.63,4.02-1.13,5.65h-54.4v-5.65h55.53Z"/>
        <path class="cls-1" d="m174.92,133.06v-4.52h51.2c-5.81,5.81-10.67,4.52-51.2,4.52Z"/>
        <rect class="cls-2" x="206.36" y=".55" width="24.09" height="84.33"/>
        <rect class="cls-6" x="206.36" y="86.01" width="24.09" height="8.47"/>
        <rect class="cls-3" x="206.36" y="96.55" width="24.09" height="7.72"/>
        <polygon class="cls-1" points="263.39 133.06 237.6 133.06 238.54 128.55 264.33 128.55 263.39 133.06"/>
        <polygon class="cls-5" points="239.48 123.46 240.8 117.82 266.4 117.82 265.27 123.46 239.48 123.46"/>
        <polygon class="cls-4" points="241.55 113.86 243.06 107.28 268.47 107.28 267.15 113.86 241.55 113.86"/>
        <polygon class="cls-3" points="243.62 104.26 245.32 96.55 270.54 96.55 269.04 104.26 243.62 104.26"/>
        <polygon class="cls-6" points="245.69 94.48 247.58 86.01 272.61 86.01 270.92 94.48 245.69 94.48"/>
        <polygon class="cls-2" points="265.65 .55 290.49 .55 308.19 84.88 282.78 84.88 277.88 60.22 272.8 84.88 247.77 84.88 265.65 .55"/>
        <polygon class="cls-6" points="284.85 94.48 282.96 86.01 308.37 86.01 310.26 94.48 284.85 94.48"/>
        <polygon class="cls-3" points="286.92 104.26 285.22 96.55 310.63 96.55 312.33 104.26 286.92 104.26"/>
        <polygon class="cls-4" points="288.8 113.86 287.48 107.28 312.89 107.28 314.4 113.86 288.8 113.86"/>
        <polygon class="cls-5" points="290.68 123.46 289.55 117.82 315.15 117.82 316.28 123.46 290.68 123.46"/>
        <polygon class="cls-1" points="318.35 133.06 292.75 133.06 291.81 128.55 317.41 128.55 318.35 133.06"/>
        <polygon class="cls-2" points="326.26 .55 348.47 .55 366.91 49.3 386.3 .55 407.76 .55 407.76 84.88 383.67 84.88 383.67 64.36 375.2 84.88 358.44 84.88 350.16 64.36 350.16 84.88 326.26 84.88 326.26 .55"/>
        <rect class="cls-6" x="326.26" y="86.01" width="23.91" height="8.47"/>
        <rect class="cls-3" x="326.26" y="96.55" width="23.91" height="7.72"/>
        <rect class="cls-4" x="326.26" y="107.28" width="23.91" height="6.59"/>
        <rect class="cls-5" x="326.26" y="117.82" width="23.91" height="5.65"/>
        <rect class="cls-1" x="326.26" y="128.55" width="23.91" height="4.52"/>
        <polygon class="cls-6" points="362.4 94.48 359.01 86.01 374.82 86.01 371.24 94.48 362.4 94.48"/>
        <path class="cls-3" d="m363.34,96.55h7.15c-4.32,10.42-3.05,10.5-7.15,0Z"/>
        <rect class="cls-6" x="383.67" y="86.01" width="24.09" height="8.47"/>
        <rect class="cls-3" x="383.67" y="96.55" width="24.09" height="7.72"/>
        <rect class="cls-4" x="383.67" y="107.28" width="24.09" height="6.59"/>
        <rect class="cls-5" x="383.67" y="117.82" width="24.09" height="5.65"/>
        <rect class="cls-1" x="383.67" y="128.55" width="24.09" height="4.52"/>
        <polygon class="cls-2" points="417.55 .55 439.76 .55 458.2 49.3 477.59 .55 499.05 .55 499.05 84.88 474.96 84.88 474.96 64.36 466.48 84.88 449.73 84.88 441.45 64.36 441.45 84.88 417.55 84.88 417.55 .55"/>
        <rect class="cls-6" x="417.55" y="86.01" width="23.91" height="8.47"/>
        <rect class="cls-3" x="417.55" y="96.55" width="23.91" height="7.72"/>
        <rect class="cls-4" x="417.55" y="107.28" width="23.91" height="6.59"/>
        <rect class="cls-5" x="417.55" y="117.82" width="23.91" height="5.65"/>
        <rect class="cls-1" x="417.55" y="128.55" width="23.91" height="4.52"/>
        <polygon class="cls-6" points="453.68 94.48 450.3 86.01 466.11 86.01 462.53 94.48 453.68 94.48"/>
        <path class="cls-3" d="m454.63,96.55h7.15c-4.32,10.42-3.05,10.5-7.15,0Z"/>
        <rect class="cls-6" x="474.96" y="86.01" width="24.09" height="8.47"/>
        <rect class="cls-3" x="474.96" y="96.55" width="24.09" height="7.72"/>
        <rect class="cls-4" x="474.96" y="107.28" width="24.09" height="6.59"/>
        <rect class="cls-5" x="474.96" y="117.82" width="24.09" height="5.65"/>
        <rect class="cls-1" x="474.96" y="128.55" width="24.09" height="4.52"/>
        <polygon class="cls-2" points="508.83 .55 566.24 .55 566.24 25.02 532.93 25.02 532.93 53.63 560.6 53.63 560.6 78.1 532.93 78.1 532.93 84.88 508.83 84.88 508.83 .55"/>
        <rect class="cls-6" x="508.83" y="86.01" width="24.09" height="8.47"/>
        <rect class="cls-3" x="508.83" y="96.55" width="24.09" height="7.72"/>
        <path class="cls-4" d="m532.93,108.59h33.32v5.27h-57.41v-6.59c24.16,0,24.09-.73,24.09,1.32Z"/>
        <rect class="cls-5" x="508.83" y="117.82" width="57.41" height="5.65"/>
        <rect class="cls-1" x="508.83" y="128.55" width="57.41" height="4.52"/>
        <path class="cls-2" d="m600.12,25.02v59.86h-24.09V.55c80.9,0,67.57-12.75,67.57,84.33h-24.09V25.02h-19.39Z"/>
        <rect class="cls-6" x="576.03" y="86.01" width="24.09" height="8.47"/>
        <rect class="cls-3" x="576.03" y="96.55" width="24.09" height="7.72"/>
        <path class="cls-4" d="m600.12,108.59c19.48,0,19.39.73,19.39-1.32h24.09v6.59h-67.57v-6.59c24.16,0,24.09-.73,24.09,1.32Z"/>
        <path class="cls-5" d="m643.6,117.82c-.25,2.13-.63,4.02-1.13,5.65h-66.44v-5.65h67.57Z"/>
        <path class="cls-1" d="m576.03,133.06v-4.52h63.24c-6.02,6.02-10.03,4.52-63.24,4.52Z"/>
        <rect class="cls-6" x="619.51" y="86.01" width="24.09" height="8.47"/>
        <rect class="cls-3" x="619.51" y="96.55" width="24.09" height="7.72"/>
      </g>
      <g>
        <polygon class="cls-2" points="62.49 177.02 62.49 201.49 43.29 201.49 43.29 261.34 19.2 261.34 19.2 201.49 0 201.49 0 177.02 62.49 177.02"/>
        <rect class="cls-6" x="19.2" y="262.47" width="24.09" height="8.47"/>
        <rect class="cls-3" x="19.2" y="273.01" width="24.09" height="7.72"/>
        <rect class="cls-4" x="19.2" y="283.74" width="24.09" height="6.59"/>
        <rect class="cls-5" x="19.2" y="294.28" width="24.09" height="5.65"/>
        <rect class="cls-1" x="19.2" y="305.01" width="24.09" height="4.52"/>
        <path class="cls-2" d="m139.85,193.96c0,50.93,1.41,53.05-4.24,56.94-10.79,7.43-12.53-2.79-8,10.45h-24.47c-1.86-5.57-1.32.02-1.32-31.25h13.93v-28.61h-19.39v59.86h-24.09v-84.33c50.25,0,67.57-4.84,67.57,16.94Z"/>
        <rect class="cls-6" x="72.28" y="262.47" width="24.09" height="8.47"/>
        <rect class="cls-3" x="72.28" y="273.01" width="24.09" height="7.72"/>
        <rect class="cls-4" x="72.28" y="283.74" width="24.09" height="6.59"/>
        <rect class="cls-5" x="72.28" y="294.28" width="24.09" height="5.65"/>
        <rect class="cls-1" x="72.28" y="305.01" width="24.09" height="4.52"/>
        <polygon class="cls-6" points="106.35 270.94 103.52 262.47 127.99 262.47 130.82 270.94 106.35 270.94"/>
        <polygon class="cls-3" points="109.55 280.73 106.91 273.01 131.38 273.01 134.02 280.73 109.55 280.73"/>
        <polygon class="cls-4" points="112.56 290.33 110.49 283.74 135.15 283.74 137.4 290.33 112.56 290.33"/>
        <polygon class="cls-5" points="115.76 299.93 113.88 294.28 138.72 294.28 140.6 299.93 115.76 299.93"/>
        <polygon class="cls-1" points="142.3 305.01 143.8 309.53 118.96 309.53 117.45 305.01 142.3 305.01"/>
        <polygon class="cls-1" points="173.54 309.53 147.76 309.53 148.7 305.01 174.49 305.01 173.54 309.53"/>
        <polygon class="cls-5" points="149.64 299.93 150.96 294.28 176.56 294.28 175.43 299.93 149.64 299.93"/>
        <polygon class="cls-4" points="151.71 290.33 153.22 283.74 178.63 283.74 177.31 290.33 151.71 290.33"/>
        <polygon class="cls-3" points="153.78 280.73 155.47 273.01 180.7 273.01 179.19 280.73 153.78 280.73"/>
        <polygon class="cls-6" points="155.85 270.94 157.73 262.47 182.77 262.47 181.07 270.94 155.85 270.94"/>
        <polygon class="cls-2" points="175.8 177.02 200.65 177.02 218.34 261.34 192.93 261.34 188.04 236.69 182.96 261.34 157.92 261.34 175.8 177.02"/>
        <polygon class="cls-6" points="195 270.94 193.12 262.47 218.53 262.47 220.41 270.94 195 270.94"/>
        <polygon class="cls-3" points="197.07 280.73 195.38 273.01 220.79 273.01 222.48 280.73 197.07 280.73"/>
        <polygon class="cls-4" points="198.95 290.33 197.64 283.74 223.05 283.74 224.55 290.33 198.95 290.33"/>
        <polygon class="cls-5" points="200.84 299.93 199.71 294.28 225.31 294.28 226.44 299.93 200.84 299.93"/>
        <polygon class="cls-1" points="228.51 309.53 202.91 309.53 201.97 305.01 227.56 305.01 228.51 309.53"/>
        <polygon class="cls-2" points="260.32 251.74 260.32 261.34 236.41 261.34 236.41 177.02 255.99 177.02 279.52 241.02 279.52 177.02 303.42 177.02 303.42 261.34 264.27 261.34 260.32 251.74"/>
        <rect class="cls-6" x="236.41" y="262.47" width="23.9" height="8.47"/>
        <rect class="cls-3" x="236.41" y="273.01" width="23.9" height="7.72"/>
        <rect class="cls-4" x="236.41" y="283.74" width="23.9" height="6.59"/>
        <rect class="cls-5" x="236.41" y="294.28" width="23.9" height="5.65"/>
        <rect class="cls-1" x="236.41" y="305.01" width="23.9" height="4.52"/>
        <polygon class="cls-6" points="268.22 270.94 264.65 262.47 303.42 262.47 303.42 270.94 268.22 270.94"/>
        <polygon class="cls-3" points="272.18 280.73 268.98 273.01 303.42 273.01 303.42 280.73 272.18 280.73"/>
        <polygon class="cls-4" points="275.94 290.33 273.3 283.74 303.42 283.74 303.42 290.33 275.94 290.33"/>
        <polygon class="cls-5" points="279.89 299.93 277.63 294.28 303.42 294.28 303.42 299.93 279.89 299.93"/>
        <polygon class="cls-1" points="283.85 309.53 281.96 305.01 303.42 305.01 303.42 309.53 283.85 309.53"/>
        <polygon class="cls-2" points="313.21 177.02 335.42 177.02 353.87 225.77 373.25 177.02 394.71 177.02 394.71 261.34 370.62 261.34 370.62 240.83 362.15 261.34 345.4 261.34 337.11 240.83 337.11 261.34 313.21 261.34 313.21 177.02"/>
        <rect class="cls-6" x="313.21" y="262.47" width="23.91" height="8.47"/>
        <rect class="cls-3" x="313.21" y="273.01" width="23.91" height="7.72"/>
        <rect class="cls-4" x="313.21" y="283.74" width="23.91" height="6.59"/>
        <rect class="cls-5" x="313.21" y="294.28" width="23.91" height="5.65"/>
        <rect class="cls-1" x="313.21" y="305.01" width="23.91" height="4.52"/>
        <polygon class="cls-6" points="349.35 270.94 345.96 262.47 361.77 262.47 358.19 270.94 349.35 270.94"/>
        <path class="cls-3" d="m350.29,273.01h7.15c-4.32,10.42-3.05,10.5-7.15,0Z"/>
        <rect class="cls-6" x="370.62" y="262.47" width="24.09" height="8.47"/>
        <rect class="cls-3" x="370.62" y="273.01" width="24.09" height="7.72"/>
        <rect class="cls-4" x="370.62" y="283.74" width="24.09" height="6.59"/>
        <rect class="cls-5" x="370.62" y="294.28" width="24.09" height="5.65"/>
        <rect class="cls-1" x="370.62" y="305.01" width="24.09" height="4.52"/>
        <rect class="cls-2" x="404.5" y="177.02" width="24.09" height="84.33"/>
        <rect class="cls-6" x="404.5" y="262.47" width="24.09" height="8.47"/>
        <rect class="cls-3" x="404.5" y="273.01" width="24.09" height="7.72"/>
        <rect class="cls-4" x="404.5" y="283.74" width="24.09" height="6.59"/>
        <rect class="cls-5" x="404.5" y="294.28" width="24.09" height="5.65"/>
        <rect class="cls-1" x="404.5" y="305.01" width="24.09" height="4.52"/>
        <path class="cls-2" d="m496.16,201.49h-32.56l24.66,59.86h-27.1l-21.27-51.76c-1.84-4.89-3.89-23.37,3.2-28.89,6.38-4.98,11.86-3.67,53.08-3.67v24.47Z"/>
        <path class="cls-4" d="m470.94,285.06c-.79-1.84-4.47-1.32,25.22-1.32v6.59h-57.79v-5.27h32.56Z"/>
        <path class="cls-5" d="m496.16,294.28c-.25,2.13-.63,4.02-1.13,5.65h-56.66v-5.65h57.79Z"/>
        <path class="cls-1" d="m438.38,309.53v-4.52h53.46c-6.02,6.02-11.51,4.52-53.46,4.52Z"/>
        <polygon class="cls-6" points="465.1 270.94 461.53 262.47 488.63 262.47 492.21 270.94 465.1 270.94"/>
        <path class="cls-3" d="m469.06,280.73l-3.2-7.72h27.1c4.64,10.32,6.09,7.72-23.91,7.72Z"/>
        <path class="cls-2" d="m563.74,201.49h-32.56l24.66,59.86h-27.1l-21.27-51.76c-1.84-4.89-3.89-23.37,3.2-28.89,6.38-4.98,11.86-3.67,53.08-3.67v24.47Z"/>
        <path class="cls-4" d="m538.51,285.06c-.79-1.84-4.47-1.32,25.22-1.32v6.59h-57.79v-5.27h32.56Z"/>
        <path class="cls-5" d="m563.74,294.28c-.25,2.13-.63,4.02-1.13,5.65h-56.66v-5.65h57.79Z"/>
        <path class="cls-1" d="m505.95,309.53v-4.52h53.46c-6.02,6.02-11.51,4.52-53.46,4.52Z"/>
        <polygon class="cls-6" points="532.68 270.94 529.1 262.47 556.21 262.47 559.78 270.94 532.68 270.94"/>
        <path class="cls-3" d="m536.63,280.73l-3.2-7.72h27.1c4.64,10.31,6.11,7.72-23.91,7.72Z"/>
        <rect class="cls-2" x="573.52" y="177.02" width="24.09" height="84.33"/>
        <rect class="cls-6" x="573.52" y="262.47" width="24.09" height="8.47"/>
        <rect class="cls-3" x="573.52" y="273.01" width="24.09" height="7.72"/>
        <rect class="cls-4" x="573.52" y="283.74" width="24.09" height="6.59"/>
        <rect class="cls-5" x="573.52" y="294.28" width="24.09" height="5.65"/>
        <rect class="cls-1" x="573.52" y="305.01" width="24.09" height="4.52"/>
        <path class="cls-2" d="m631.5,201.49v59.86h-24.09c0-94.5-9.45-84.33,50.07-84.33,11.25,0,17.5,5.6,17.5,16.94v67.38h-24.09v-59.86h-19.39Z"/>
        <rect class="cls-6" x="607.4" y="262.47" width="24.09" height="8.47"/>
        <rect class="cls-3" x="607.4" y="273.01" width="24.09" height="7.72"/>
        <path class="cls-4" d="m631.5,285.06c19.48,0,19.39.73,19.39-1.32h24.09v6.59h-67.57v-6.59c24.16,0,24.09-.73,24.09,1.32Z"/>
        <path class="cls-5" d="m608.53,299.93c-.7-2.46-1.13-3.79-1.13-5.65h67.57c-.25,2.13-.63,4.02-1.13,5.65h-65.31Z"/>
        <path class="cls-1" d="m623.21,309.53c-5.15-.13-9.04-1.76-11.67-4.52h59.1c-5.72,5.99-11.65,5.39-47.43,4.52Z"/>
        <rect class="cls-6" x="650.88" y="262.47" width="24.09" height="8.47"/>
        <rect class="cls-3" x="650.88" y="273.01" width="24.09" height="7.72"/>
        <polygon class="cls-2" points="708.67 251.74 708.67 261.34 684.76 261.34 684.76 177.02 704.34 177.02 727.87 241.02 727.87 177.02 751.77 177.02 751.77 261.34 712.62 261.34 708.67 251.74"/>
        <rect class="cls-6" x="684.76" y="262.47" width="23.9" height="8.47"/>
        <rect class="cls-3" x="684.76" y="273.01" width="23.9" height="7.72"/>
        <rect class="cls-4" x="684.76" y="283.74" width="23.9" height="6.59"/>
        <rect class="cls-5" x="684.76" y="294.28" width="23.9" height="5.65"/>
        <rect class="cls-1" x="684.76" y="305.01" width="23.9" height="4.52"/>
        <polygon class="cls-6" points="716.57 270.94 713 262.47 751.77 262.47 751.77 270.94 716.57 270.94"/>
        <polygon class="cls-3" points="720.53 280.73 717.33 273.01 751.77 273.01 751.77 280.73 720.53 280.73"/>
        <polygon class="cls-4" points="724.29 290.33 721.66 283.74 751.77 283.74 751.77 290.33 724.29 290.33"/>
        <polygon class="cls-5" points="728.24 299.93 725.99 294.28 751.77 294.28 751.77 299.93 728.24 299.93"/>
        <polygon class="cls-1" points="732.2 309.53 730.32 305.01 751.77 305.01 751.77 309.53 732.2 309.53"/>
        <path class="cls-2" d="m819.35,201.49h-32.56l24.66,59.86h-27.1l-21.27-51.76c-1.87-4.99-3.86-23.39,3.2-28.89,6.38-4.98,11.86-3.67,53.08-3.67v24.47Z"/>
        <path class="cls-4" d="m794.12,285.06c-.79-1.84-4.47-1.32,25.22-1.32v6.59h-57.78v-5.27h32.56Z"/>
        <path class="cls-5" d="m819.35,294.28c-.25,2.13-.63,4.02-1.13,5.65h-56.66v-5.65h57.78Z"/>
        <path class="cls-1" d="m761.56,309.53v-4.52h53.46c-6.02,6.02-11.51,4.52-53.46,4.52Z"/>
        <polygon class="cls-6" points="788.29 270.94 784.71 262.47 811.82 262.47 815.39 270.94 788.29 270.94"/>
        <path class="cls-3" d="m792.24,280.73l-3.2-7.72h27.1c4.64,10.31,6.09,7.72-23.9,7.72Z"/>
      </g>
    </g>
  </g>
</svg>