<?xml version="1.0" encoding="UTF-8"?>
<svg xmlns="http://www.w3.org/2000/svg" viewBox="0 0 884.94 310.08">
  <defs>
    <style>
      .cls-1 {
				fill: blue;
      }
      .cls-2 {
				fill: #f0f0f0;
      }
      .cls-3 {
				fill: #99F;
      }
      .cls-4 {
				fill: #66f;
      }
      .cls-5 {
				fill: #33f;
      }
      .cls-6 {
				fill: #ccf;
      }
    </style>
  </defs>
  <g>
    <g>
      <g>
        <path class="cls-4" d="m207.72,108.59c31.49,0,31.43.73,31.43-1.32h24.09v6.59h-55.53v-5.27Z"/>
        <path class="cls-5" d="m263.25,117.82c-.25,2.13-.63,4.02-1.13,5.65h-54.4v-5.65h55.53Z"/>
        <path class="cls-1" d="m207.72,133.06v-4.52h51.2c-5.81,5.81-10.67,4.52-51.2,4.52Z"/>
        <rect class="cls-2" x="239.15" y=".55" width="24.09" height="84.33"/>
        <rect class="cls-6" x="239.15" y="86.01" width="24.09" height="8.47"/>
        <rect class="cls-3" x="239.15" y="96.55" width="24.09" height="7.72"/>
        <polygon class="cls-1" points="296.18 133.06 270.4 133.06 271.34 128.55 297.13 128.55 296.18 133.06"/>
        <polygon class="cls-5" points="272.28 123.46 273.6 117.82 299.2 117.82 298.07 123.46 272.28 123.46"/>
        <polygon class="cls-4" points="274.35 113.86 275.86 107.28 301.27 107.28 299.95 113.86 274.35 113.86"/>
        <polygon class="cls-3" points="276.42 104.26 278.11 96.55 303.34 96.55 301.83 104.26 276.42 104.26"/>
        <polygon class="cls-6" points="278.49 94.48 280.37 86.01 305.41 86.01 303.71 94.48 278.49 94.48"/>
        <polygon class="cls-2" points="298.44 .55 323.29 .55 340.98 84.88 315.57 84.88 310.68 60.22 305.6 84.88 280.56 84.88 298.44 .55"/>
        <polygon class="cls-6" points="317.64 94.48 315.76 86.01 341.17 86.01 343.05 94.48 317.64 94.48"/>
        <polygon class="cls-3" points="319.71 104.26 318.02 96.55 343.43 96.55 345.12 104.26 319.71 104.26"/>
        <polygon class="cls-4" points="321.59 113.86 320.28 107.28 345.69 107.28 347.19 113.86 321.59 113.86"/>
        <polygon class="cls-5" points="323.48 123.46 322.35 117.82 347.95 117.82 349.08 123.46 323.48 123.46"/>
        <polygon class="cls-1" points="351.15 133.06 325.55 133.06 324.61 128.55 350.21 128.55 351.15 133.06"/>
        <polygon class="cls-2" points="359.05 .55 381.26 .55 399.71 49.3 419.1 .55 440.56 .55 440.56 84.88 416.46 84.88 416.46 64.36 407.99 84.88 391.24 84.88 382.96 64.36 382.96 84.88 359.05 84.88 359.05 .55"/>
        <rect class="cls-6" x="359.05" y="86.01" width="23.91" height="8.47"/>
        <rect class="cls-3" x="359.05" y="96.55" width="23.91" height="7.72"/>
        <rect class="cls-4" x="359.05" y="107.28" width="23.91" height="6.59"/>
        <rect class="cls-5" x="359.05" y="117.82" width="23.91" height="5.65"/>
        <rect class="cls-1" x="359.05" y="128.55" width="23.91" height="4.52"/>
        <polygon class="cls-6" points="395.19 94.48 391.8 86.01 407.62 86.01 404.04 94.48 395.19 94.48"/>
        <path class="cls-3" d="m396.13,96.55h7.15c-4.32,10.42-3.05,10.5-7.15,0Z"/>
        <rect class="cls-6" x="416.46" y="86.01" width="24.09" height="8.47"/>
        <rect class="cls-3" x="416.46" y="96.55" width="24.09" height="7.72"/>
        <rect class="cls-4" x="416.46" y="107.28" width="24.09" height="6.59"/>
        <rect class="cls-5" x="416.46" y="117.82" width="24.09" height="5.65"/>
        <rect class="cls-1" x="416.46" y="128.55" width="24.09" height="4.52"/>
        <polygon class="cls-2" points="450.34 .55 472.55 .55 491 49.3 510.39 .55 531.84 .55 531.84 84.88 507.75 84.88 507.75 64.36 499.28 84.88 482.53 84.88 474.25 64.36 474.25 84.88 450.34 84.88 450.34 .55"/>
        <rect class="cls-6" x="450.34" y="86.01" width="23.91" height="8.47"/>
        <rect class="cls-3" x="450.34" y="96.55" width="23.91" height="7.72"/>
        <rect class="cls-4" x="450.34" y="107.28" width="23.91" height="6.59"/>
        <rect class="cls-5" x="450.34" y="117.82" width="23.91" height="5.65"/>
        <rect class="cls-1" x="450.34" y="128.55" width="23.91" height="4.52"/>
        <polygon class="cls-6" points="486.48 94.48 483.09 86.01 498.9 86.01 495.33 94.48 486.48 94.48"/>
        <path class="cls-3" d="m487.42,96.55h7.15c-4.32,10.42-3.05,10.5-7.15,0Z"/>
        <rect class="cls-6" x="507.75" y="86.01" width="24.09" height="8.47"/>
        <rect class="cls-3" x="507.75" y="96.55" width="24.09" height="7.72"/>
        <rect class="cls-4" x="507.75" y="107.28" width="24.09" height="6.59"/>
        <rect class="cls-5" x="507.75" y="117.82" width="24.09" height="5.65"/>
        <rect class="cls-1" x="507.75" y="128.55" width="24.09" height="4.52"/>
        <polygon class="cls-2" points="541.63 .55 599.04 .55 599.04 25.02 565.72 25.02 565.72 53.63 593.39 53.63 593.39 78.1 565.72 78.1 565.72 84.88 541.63 84.88 541.63 .55"/>
        <rect class="cls-6" x="541.63" y="86.01" width="24.09" height="8.47"/>
        <rect class="cls-3" x="541.63" y="96.55" width="24.09" height="7.72"/>
        <path class="cls-4" d="m565.72,108.59h33.32v5.27h-57.41v-6.59c24.16,0,24.09-.73,24.09,1.32Z"/>
        <rect class="cls-5" x="541.63" y="117.82" width="57.41" height="5.65"/>
        <rect class="cls-1" x="541.63" y="128.55" width="57.41" height="4.52"/>
        <path class="cls-2" d="m632.92,25.02v59.86h-24.09V.55c80.9,0,67.57-12.75,67.57,84.33h-24.09V25.02h-19.39Z"/>
        <rect class="cls-6" x="608.83" y="86.01" width="24.09" height="8.47"/>
        <rect class="cls-3" x="608.83" y="96.55" width="24.09" height="7.72"/>
        <path class="cls-4" d="m632.92,108.59c19.48,0,19.39.73,19.39-1.32h24.09v6.59h-67.57v-6.59c24.16,0,24.09-.73,24.09,1.32Z"/>
        <path class="cls-5" d="m676.4,117.82c-.25,2.13-.63,4.02-1.13,5.65h-66.44v-5.65h67.57Z"/>
        <path class="cls-1" d="m608.83,133.06v-4.52h63.24c-6.02,6.02-10.03,4.52-63.24,4.52Z"/>
        <rect class="cls-6" x="652.31" y="86.01" width="24.09" height="8.47"/>
        <rect class="cls-3" x="652.31" y="96.55" width="24.09" height="7.72"/>
      </g>
      <g>
        <polygon class="cls-2" points="62.49 177.02 62.49 201.49 43.29 201.49 43.29 261.34 19.2 261.34 19.2 201.49 0 201.49 0 177.02 62.49 177.02"/>
        <rect class="cls-6" x="19.2" y="262.47" width="24.09" height="8.47"/>
        <rect class="cls-3" x="19.2" y="273.01" width="24.09" height="7.72"/>
        <rect class="cls-4" x="19.2" y="283.74" width="24.09" height="6.59"/>
        <rect class="cls-5" x="19.2" y="294.28" width="24.09" height="5.65"/>
        <rect class="cls-1" x="19.2" y="305.01" width="24.09" height="4.52"/>
        <path class="cls-2" d="m139.85,193.96c0,50.93,1.41,53.05-4.24,56.94-10.79,7.43-12.53-2.79-8,10.45h-24.47c-1.86-5.57-1.32.02-1.32-31.25h13.93v-28.61h-19.39v59.86h-24.09v-84.33c50.25,0,67.57-4.84,67.57,16.94Z"/>
        <rect class="cls-6" x="72.28" y="262.47" width="24.09" height="8.47"/>
        <rect class="cls-3" x="72.28" y="273.01" width="24.09" height="7.72"/>
        <rect class="cls-4" x="72.28" y="283.74" width="24.09" height="6.59"/>
        <rect class="cls-5" x="72.28" y="294.28" width="24.09" height="5.65"/>
        <rect class="cls-1" x="72.28" y="305.01" width="24.09" height="4.52"/>
        <polygon class="cls-6" points="106.35 270.94 103.52 262.47 127.99 262.47 130.82 270.94 106.35 270.94"/>
        <polygon class="cls-3" points="109.55 280.73 106.91 273.01 131.38 273.01 134.02 280.73 109.55 280.73"/>
        <polygon class="cls-4" points="112.56 290.33 110.49 283.74 135.15 283.74 137.4 290.33 112.56 290.33"/>
        <polygon class="cls-5" points="115.76 299.93 113.88 294.28 138.72 294.28 140.6 299.93 115.76 299.93"/>
        <polygon class="cls-1" points="142.3 305.01 143.8 309.53 118.96 309.53 117.45 305.01 142.3 305.01"/>
        <polygon class="cls-1" points="173.54 309.53 147.76 309.53 148.7 305.01 174.49 305.01 173.54 309.53"/>
        <polygon class="cls-5" points="149.64 299.93 150.96 294.28 176.56 294.28 175.43 299.93 149.64 299.93"/>
        <polygon class="cls-4" points="151.71 290.33 153.22 283.74 178.63 283.74 177.31 290.33 151.71 290.33"/>
        <polygon class="cls-3" points="153.78 280.73 155.47 273.01 180.7 273.01 179.19 280.73 153.78 280.73"/>
        <polygon class="cls-6" points="155.85 270.94 157.73 262.47 182.77 262.47 181.07 270.94 155.85 270.94"/>
        <polygon class="cls-2" points="175.8 177.02 200.65 177.02 218.34 261.34 192.93 261.34 188.04 236.69 182.96 261.34 157.92 261.34 175.8 177.02"/>
        <polygon class="cls-6" points="195 270.94 193.12 262.47 218.53 262.47 220.41 270.94 195 270.94"/>
        <polygon class="cls-3" points="197.07 280.73 195.38 273.01 220.79 273.01 222.48 280.73 197.07 280.73"/>
        <polygon class="cls-4" points="198.95 290.33 197.64 283.74 223.05 283.74 224.55 290.33 198.95 290.33"/>
        <polygon class="cls-5" points="200.84 299.93 199.71 294.28 225.31 294.28 226.44 299.93 200.84 299.93"/>
        <polygon class="cls-1" points="228.51 309.53 202.91 309.53 201.97 305.01 227.56 305.01 228.51 309.53"/>
        <polygon class="cls-2" points="260.32 251.74 260.32 261.34 236.41 261.34 236.41 177.02 255.99 177.02 279.52 241.02 279.52 177.02 303.42 177.02 303.42 261.34 264.27 261.34 260.32 251.74"/>
        <rect class="cls-6" x="236.41" y="262.47" width="23.9" height="8.47"/>
        <rect class="cls-3" x="236.41" y="273.01" width="23.9" height="7.72"/>
        <rect class="cls-4" x="236.41" y="283.74" width="23.9" height="6.59"/>
        <rect class="cls-5" x="236.41" y="294.28" width="23.9" height="5.65"/>
        <rect class="cls-1" x="236.41" y="305.01" width="23.9" height="4.52"/>
        <polygon class="cls-6" points="268.22 270.94 264.65 262.47 303.42 262.47 303.42 270.94 268.22 270.94"/>
        <polygon class="cls-3" points="272.18 280.73 268.98 273.01 303.42 273.01 303.42 280.73 272.18 280.73"/>
        <polygon class="cls-4" points="275.94 290.33 273.3 283.74 303.42 283.74 303.42 290.33 275.94 290.33"/>
        <polygon class="cls-5" points="279.89 299.93 277.63 294.28 303.42 294.28 303.42 299.93 279.89 299.93"/>
        <polygon class="cls-1" points="283.85 309.53 281.96 305.01 303.42 305.01 303.42 309.53 283.85 309.53"/>
        <g>
          <polygon class="cls-2" points="378.8 177.02 401.01 177.02 419.46 225.77 438.85 177.02 460.3 177.02 460.3 261.34 436.21 261.34 436.21 240.83 427.74 261.34 410.99 261.34 402.71 240.83 402.71 261.34 378.8 261.34 378.8 177.02"/>
          <rect class="cls-6" x="378.8" y="262.47" width="23.91" height="8.47"/>
          <rect class="cls-3" x="378.8" y="273.01" width="23.91" height="7.72"/>
          <rect class="cls-4" x="378.8" y="283.74" width="23.91" height="6.59"/>
          <rect class="cls-5" x="378.8" y="294.28" width="23.91" height="5.65"/>
          <rect class="cls-1" x="378.8" y="305.01" width="23.91" height="4.52"/>
          <polygon class="cls-6" points="414.94 270.94 411.55 262.47 427.36 262.47 423.79 270.94 414.94 270.94"/>
          <path class="cls-3" d="m415.88,273.01h7.15c-4.32,10.42-3.05,10.5-7.15,0Z"/>
          <rect class="cls-6" x="436.21" y="262.47" width="24.09" height="8.47"/>
          <rect class="cls-3" x="436.21" y="273.01" width="24.09" height="7.72"/>
          <rect class="cls-4" x="436.21" y="283.74" width="24.09" height="6.59"/>
          <rect class="cls-5" x="436.21" y="294.28" width="24.09" height="5.65"/>
          <rect class="cls-1" x="436.21" y="305.01" width="24.09" height="4.52"/>
          <rect class="cls-2" x="470.09" y="177.02" width="24.09" height="84.33"/>
          <rect class="cls-6" x="470.09" y="262.47" width="24.09" height="8.47"/>
          <rect class="cls-3" x="470.09" y="273.01" width="24.09" height="7.72"/>
          <rect class="cls-4" x="470.09" y="283.74" width="24.09" height="6.59"/>
          <rect class="cls-5" x="470.09" y="294.28" width="24.09" height="5.65"/>
          <rect class="cls-1" x="470.09" y="305.01" width="24.09" height="4.52"/>
          <path class="cls-2" d="m561.75,201.49h-32.56l24.66,59.86h-27.1l-21.27-51.76c-1.84-4.89-3.89-23.37,3.2-28.89,6.38-4.98,11.86-3.67,53.08-3.67v24.47Z"/>
          <path class="cls-4" d="m536.53,285.06c-.79-1.84-4.47-1.32,25.22-1.32v6.59h-57.79v-5.27h32.56Z"/>
          <path class="cls-5" d="m561.75,294.28c-.25,2.13-.63,4.02-1.13,5.65h-56.66v-5.65h57.79Z"/>
          <path class="cls-1" d="m503.97,309.53v-4.52h53.46c-6.02,6.02-11.51,4.52-53.46,4.52Z"/>
          <polygon class="cls-6" points="530.7 270.94 527.12 262.47 554.23 262.47 557.8 270.94 530.7 270.94"/>
          <path class="cls-3" d="m534.65,280.73l-3.2-7.72h27.1c4.64,10.32,6.09,7.72-23.91,7.72Z"/>
          <path class="cls-2" d="m629.33,201.49h-32.56l24.66,59.86h-27.1l-21.27-51.76c-1.84-4.89-3.89-23.37,3.2-28.89,6.38-4.98,11.86-3.67,53.08-3.67v24.47Z"/>
          <path class="cls-4" d="m604.11,285.06c-.79-1.84-4.47-1.32,25.22-1.32v6.59h-57.79v-5.27h32.56Z"/>
          <path class="cls-5" d="m629.33,294.28c-.25,2.13-.63,4.02-1.13,5.65h-56.66v-5.65h57.79Z"/>
          <path class="cls-1" d="m571.54,309.53v-4.52h53.46c-6.02,6.02-11.51,4.52-53.46,4.52Z"/>
          <polygon class="cls-6" points="598.27 270.94 594.69 262.47 621.8 262.47 625.38 270.94 598.27 270.94"/>
          <path class="cls-3" d="m602.22,280.73l-3.2-7.72h27.1c4.64,10.31,6.11,7.72-23.91,7.72Z"/>
          <rect class="cls-2" x="639.12" y="177.02" width="24.09" height="84.33"/>
          <rect class="cls-6" x="639.12" y="262.47" width="24.09" height="8.47"/>
          <rect class="cls-3" x="639.12" y="273.01" width="24.09" height="7.72"/>
          <rect class="cls-4" x="639.12" y="283.74" width="24.09" height="6.59"/>
          <rect class="cls-5" x="639.12" y="294.28" width="24.09" height="5.65"/>
          <rect class="cls-1" x="639.12" y="305.01" width="24.09" height="4.52"/>
          <path class="cls-2" d="m697.09,201.49v59.86h-24.09c0-94.5-9.45-84.33,50.07-84.33,11.25,0,17.5,5.6,17.5,16.94v67.38h-24.09v-59.86h-19.39Z"/>
          <rect class="cls-6" x="673" y="262.47" width="24.09" height="8.47"/>
          <rect class="cls-3" x="673" y="273.01" width="24.09" height="7.72"/>
          <path class="cls-4" d="m697.09,285.06c19.48,0,19.39.73,19.39-1.32h24.09v6.59h-67.57v-6.59c24.16,0,24.09-.73,24.09,1.32Z"/>
          <path class="cls-5" d="m674.13,299.93c-.7-2.46-1.13-3.79-1.13-5.65h67.57c-.25,2.13-.63,4.02-1.13,5.65h-65.31Z"/>
          <path class="cls-1" d="m688.81,309.53c-5.15-.13-9.04-1.76-11.67-4.52h59.1c-5.72,5.99-11.65,5.39-47.43,4.52Z"/>
          <rect class="cls-6" x="716.48" y="262.47" width="24.09" height="8.47"/>
          <rect class="cls-3" x="716.48" y="273.01" width="24.09" height="7.72"/>
          <polygon class="cls-2" points="774.26 251.74 774.26 261.34 750.36 261.34 750.36 177.02 769.93 177.02 793.46 241.02 793.46 177.02 817.37 177.02 817.37 261.34 778.21 261.34 774.26 251.74"/>
          <rect class="cls-6" x="750.36" y="262.47" width="23.9" height="8.47"/>
          <rect class="cls-3" x="750.36" y="273.01" width="23.9" height="7.72"/>
          <rect class="cls-4" x="750.36" y="283.74" width="23.9" height="6.59"/>
          <rect class="cls-5" x="750.36" y="294.28" width="23.9" height="5.65"/>
          <rect class="cls-1" x="750.36" y="305.01" width="23.9" height="4.52"/>
          <polygon class="cls-6" points="782.17 270.94 778.59 262.47 817.37 262.47 817.37 270.94 782.17 270.94"/>
          <polygon class="cls-3" points="786.12 280.73 782.92 273.01 817.37 273.01 817.37 280.73 786.12 280.73"/>
          <polygon class="cls-4" points="789.88 290.33 787.25 283.74 817.37 283.74 817.37 290.33 789.88 290.33"/>
          <polygon class="cls-5" points="793.84 299.93 791.58 294.28 817.37 294.28 817.37 299.93 793.84 299.93"/>
          <polygon class="cls-1" points="797.79 309.53 795.91 305.01 817.37 305.01 817.37 309.53 797.79 309.53"/>
          <g>
            <path class="cls-2" d="m884.94,201.49h-32.56l24.66,59.86h-27.1l-21.27-51.76c-1.87-4.99-3.86-23.39,3.2-28.89,6.38-4.98,11.86-3.67,53.08-3.67v24.47Z"/>
            <path class="cls-4" d="m859.72,285.06c-.79-1.84-4.47-1.32,25.22-1.32v6.59h-57.78v-5.27h32.56Z"/>
            <path class="cls-5" d="m884.94,294.28c-.25,2.13-.63,4.02-1.13,5.65h-56.66v-5.65h57.78Z"/>
            <path class="cls-1" d="m827.15,309.53v-4.52h53.46c-6.02,6.02-11.51,4.52-53.46,4.52Z"/>
            <polygon class="cls-6" points="853.88 270.94 850.31 262.47 877.41 262.47 880.99 270.94 853.88 270.94"/>
            <path class="cls-3" d="m857.83,280.73l-3.2-7.72h27.1c4.64,10.31,6.09,7.72-23.9,7.72Z"/>
          </g>
        </g>
        <g>
          <path class="cls-2" d="m370.23,201.49h-32.56l24.66,59.86h-27.1l-21.27-51.76c-1.87-4.99-3.86-23.39,3.2-28.89,6.38-4.98,11.86-3.67,53.08-3.67v24.47Z"/>
          <path class="cls-4" d="m345.01,285.06c-.79-1.84-4.47-1.32,25.22-1.32v6.59h-57.78v-5.27h32.56Z"/>
          <path class="cls-5" d="m370.23,294.28c-.25,2.13-.63,4.02-1.13,5.65h-56.66v-5.65h57.78Z"/>
          <path class="cls-1" d="m312.45,309.53v-4.52h53.46c-6.02,6.02-11.51,4.52-53.46,4.52Z"/>
          <polygon class="cls-6" points="339.17 270.94 335.6 262.47 362.7 262.47 366.28 270.94 339.17 270.94"/>
          <path class="cls-3" d="m343.13,280.73l-3.2-7.72h27.1c4.64,10.31,6.09,7.72-23.9,7.72Z"/>
        </g>
      </g>
    </g>
  </g>
</svg>