<?xml version="1.0" encoding="UTF-8"?><svg xmlns="http://www.w3.org/2000/svg" width="901.208372" height="367.19354" viewBox="0 0 901.208372 367.19354"><g isolation="isolate"><g id="b"><g id="c"><path d="M113.963576,275.804507c-.130376-.010934-.259191-.021992-.386446-.033174l-2.746848-.192154c.486729-.161424.959152-.332412,1.417259-.512966l1.716035.738293ZM287.257589,96.183365l-2.329519-1.344967,2.863135-2.714192-.533616,4.059159ZM301.631462,89.034782l-.142268.024539-7.093774,4.547764-6.24579-1.822657,2.95235-2.798765,4.820013,2.000866.051924-5.223491,1.604563.931797,4.052982,2.339948ZM167.164413,286.84215l-.140748.024277-7.093462,4.547764-6.547955-1.910836-.929351,7.069468c-.240775-.20438-.485814-.400837-.735115-.589372-1.273193-3.515576-2.334865-5.971354-3.183139-7.367337l-14.860543-8.584646c.542523-.218647,1.070011-.449006,1.582465-.691075,2.424222.122477,4.697849.516151,6.820879,1.182273l10.549851.36368,2.217601-2.697361-.189799,1.401518,8.458166,4.911435,4.05115,2.34021ZM327.601431,92.322703l-1.648479,1.284382-2.36665-.642168,4.015129-.642215ZM193.128752,290.135379l-1.64133,1.278812-2.356317-.639364,3.997646-.639448ZM224.594352,282.7969l-1.093482.467172-.175606-1.200225,1.269089.733053ZM355.736148,100.522701l-.822973-.805348-3.693079-2.132074,4.32952-2.233338.494954.112532-.308422,5.058228ZM220.569571,297.652007l-.125286-.122603-3.691906-2.132599,3.896894-2.0101-.079702,4.265302ZM392.63594,81.886042l-3.525387,1.140378-2.475698-1.429153.446835-.706301,5.262257.826518.291992.168558ZM412.88066,87.773683l-3.490304.714324-3.591073-2.073003,4.018672-.248801,3.062706,1.60748ZM278.280607,290.819699l-.896499.229571-7.49862-1.470753,3.993625-1.301096,4.401493,2.542278ZM449.374135,90.605137l-5.096605-2.941968,1.317192-.548883,3.840743,2.217028-.061331,1.273823ZM477.362829,94.988578l-7.277695-4.200882-10.913258-2.638178-1.134125-.096302,1.527535-1.249635.333632-6.783182,2.875906,1.660034,1.671882,1.922572,5.274478,3.910398,8.559076,4.940498-1.192556.970694.275125,1.563984ZM333.748994,317.318951l-19.344163-11.172955-8.003265-.636112-.506961-.131336.084521-4.029876-14.666367-8.471117,3.570996-2.533022,11.550284-4.365413.022682-13.998641,3.127906,4.609426,13.167427,7.60493-3.800084,1.580578-5.729383-2.819389,7.18438,10.822653,10.094686,11.185075,2.819076,10.731423c.172549.55353.315304,1.094789.428265,1.623776ZM367.046061,298.875152l-7.402231-4.711351-10.993411-6.349165,2.080745.620264,3.388554-3.609734,10.344437,5.97428c.302442-2.666988,0-4.395407-.909825-5.184005l-.013168-.017514-18.175843-24.174095-3.81958-7.002407c-.027222-.108758-.05401-.217301-.080365-.325631l15.995749,9.237671h10.986253s-.074874,11.346855-.074874,11.346855l8.037,4.641478-1.215979,1.087279-7.548363,8.640626-.599099,9.825448ZM403.975897,279.694186l-3.524182,1.139988-2.471772-1.427446.445197-.703711,5.266912.82725.283846.16392ZM424.217251,285.582135l-3.487589.713768-3.582903-2.069097,4.014645-.248551,3.055847,1.60388ZM601.73896,72.622053l-10.73756-6.196813-.612462-6.360279.636753-.636128-.636753-1.819651v-14.550958l11.599512-.455067.307702,25.084549-.557192,4.934347ZM460.984788,288.568918l-5.360062-3.095259,1.315258-.548077,4.391581,2.535986-.346777,1.10735ZM610.126794,84.264322c-.118134.028785-.23709.058462-.356871.089033l-.103448-.354694.460319.265661ZM601.932481,133.364183l-9.952529-5.744473c-.61741.042644-1.223611.082443-1.818603.119398l-.409163-20.745649-5.183693-5.184005-5.456766-3.456837-21.144712-12.203913-1.000408,4.911435-11.458765-1.001033-1.235618,3.050706-7.662644-6.852411-5.188561-2.994714,1.550805-.734592,6.862379-1.07708,13.054448,7.534613-.0383-5.803764,12.892379,7.440984,6.912111,3.091907,3.468202-3.884272,7.454222,4.30223c4.101613,2.36726,9.585639,4.168075,16.452012,5.402176l1.191608-.011019.711597,12.999114.636424,1.273474-.636424,5.001415.636424,11.641226c-.122161,1.091013-.33399,1.939579-.636424,2.545698v.379387ZM638.260621,95.347668l-3.849991-2.221897,3.413693-.286721.436298,2.508618ZM532.584065,317.316361l-19.344227-11.170364-7.913036-.628965-.164327-8.897452-21.142863-12.208869-5.547547,1.273474-7.4685-2.996586.252351-5.130625,10.806303,6.240067,4.729093-1.09229,15.188024,4.547878,4.001732-2.636994-.302707-12.065852,2.741584,4.040125,13.169151,7.604137-3.802119,1.581371-5.729383-2.819389,7.184692,10.822653,10.094686,11.185075,2.819389,10.731423c.172267.552627.314835,1.093022.427704,1.621185ZM666.095352,168.471664l12.004884-7.002407c2.121468-6.547494,3.54682-11.367819,4.274492-14.459726l3.092219-11.186604,1.727794-26.556155-1.000433-11.459052-20.988285-12.112083.889329-.348027c1.901485-2.172805,4.582105-3.128101,8.042536-2.867687l5.599535,3.231367,7.275479.818593.818593-22.645656-3.001299-16.096912c-.304004-2.96943-.697679-5.668912-1.182273-8.094697l-1.727794-7.457319-4.183572-5.547686-4.820325-4.365413-21.147057-12.202012-11.822436-6.274889c-3.032467-.727342-5.820613-1.121007-8.366936-1.182244l-7.093462.636112-11.186012-.908553-8.548771-.273691-2.182652,5.457567v1.517645l-9.40671-5.428047-6.638873,1.091013-8.09387-2.910619v.546132h-1.818981s-31.284466.636112-31.284466.636112l-3.001224,5.275106.636737,1.909586-.124715,1.549691-10.091814-5.823823-28.101405-2.091983-2.364477,7.365924-2.421891,15.286013-1.081284-6.811967-2.364595-3.638114-21.142645-12.201855-26.282393-2.455785-.621442,7.189742-9.304558-5.370075-25.009577-2.000816-2.364487,3.637961-3.529546,21.949267-.521441-3.291125-1.000121-9.094505-21.1404-12.201814-27.737735,1.364704.545819,11.003864-1.091638,34.739967-.181836,27.556524,8.038235,4.640374-1.217214,1.088384-5.394188,6.174738-10.455106-71.456049-5.183693-3.729285-21.138805-12.201794-21.917435,1.819605-3.211335,23.714621c-1.031487-4.471947-2.543326-8.552408-4.538616-12.240142l-21.137535-12.201821h-15.732838c-.119527.162402-.237816.32496-.354866.487675-2.19873,3.056526-3.960301,6.168197-5.283911,9.333945l.002125.024056,2.271444,25.712863-.545819,1.818356.182148,38.832829,16.073777,9.280387-2.068377,2.81574-6.547955-3.637961-7.457445-.818572.273251,15.305821-16.387167-9.461768-2.68693-1.551403c-.707642-.408585-1.443343-.778452-2.207099-1.10959l-.010442-.003669-3.354453-1.178575-7.912034,2.455717c-2.486648,3.880409-3.971951,7.973271-4.456221,12.277338l3.364895,29.37488,4.456221,11.095094c2.485399,3.394264,5.122639,6.243646,7.912034,8.548146l21.136523,12.205561,14.642191,4.911558,9.003585-2.455779c3.879256-1.515959,7.244548-3.54682,10.094938-6.093831l2.058784-3.004639,13.551347,7.824964,5.093085,2.455779,19.462204-1.001058c0-3.154359.389177-6.817736,1.1684-10.991001l20.294983,11.718362,20.735397-.544895,2.273939-3.638052-.380053-2.854205,13.450046,7.765762,15.278944-1.273506.824687-6.851183,12.180318,7.032398,14.369431-.181215,1.063373-8.444238,12.578385,7.261964,21.736143,2.092099.196768-5.183144,8.819939,5.091911,21.736143-2.092099.829943-7.788827,15.540057,8.971136,9.73124-3.09192,1.06776-4.901882,13.847495,7.993802,15.278649,1.273459,5.820446-3.729305.040605-1.333761,11.449059,6.609031,50.475004-2.547011-.133372-3.840908,9.176638,5.296879,32.467834,2.273314,8.730513-2.547011ZM604.236644,312.016977l-15.994632-9.235251-17.824885-.637362c-.241324.078711-.474479.163325-.699465.25384l-3.230388-3.140381-8.003152-5.094023-10.998681-6.350716,2.086016.621815,3.387589-3.608706,10.345089,5.973252c.303067-2.666988,0-4.395407-.909201-5.184005l-18.189011-24.191609-3.819892-7.002407c-.026998-.107905-.053569-.2156-.079714-.323083l15.995099,9.235124h18.589094s11.441604,14.621145,11.441604,14.621145l8.275705,5.092646,15.860632,9.157441-8.221038,1.02785-7.639593-3.819172-6.365807-.637362c.363984,1.334711,1.000408,2.39573,1.909898,3.18306l10.185604,12.732239,3.819484,7.002232c.026974.108024.053522.215835.079645.323434ZM642.654523,300.857575l-12.046813-6.955318c2.009365-.754046,3.848572-1.575988,5.517766-2.466683,3.097989-.549037,5.228723-1.942856,6.391153-4.181457l-.476596,1.521896.61449,12.081562ZM679.662218,286.221963l-5.714104,1.735477-.115196,1.471874-8.692894-5.018605-5.547547,1.273474-14.733055-5.911218-1.810668,5.781938c-1.561748-2.965198-3.444911-5.460411-5.650084-7.488015l-7.639159-5.730151-6.366279-6.365029c-2.182706-2.547011-4.092652-5.094023-5.729526-7.639784-1.880264-2.849453-3.364979-5.607674-4.456645-8.275912l-.21885-1.970406,19.954127,11.519824,8.276225.636128.597956.149379.223516,11.197553,21.146814,12.208549,4.729093-1.09229,11.746278,3.517214ZM693.288022,288.340108l-3.424921,1.163248-6.173897-2.636235,3.290662-2.168763,6.308157,3.64175ZM709.712934,295.759003l-5.333947-3.079318,5.697339-1.008819-.363392,4.088137ZM798.7378,290.818406l-.90155.230865-7.490498-1.46916,3.993128-1.300934,4.398921,2.539229ZM854.199493,317.311311l-19.342834-11.165314-8.002952-.636112-.49402-.127984.084591-4.033229-14.670496-8.46829,3.575125-2.535849,11.550284-4.365413.02265-13.979099,3.114926,4.589884,13.172007,7.602895-3.804976,1.582613-5.729383-2.819389,7.18438,10.822653,10.094686,11.185075,2.819389,10.731423c.171718.550866.313926,1.089577.426624,1.616135ZM890.840361,358.462715l5.456766-7.002407c1.575948-3.396848,2.819459-6.579988,3.728972-9.549418.72736-4.001732,1.121035-7.60979,1.182273-10.822924-.424918-4.304174-1.031677-8.123442-1.819026-11.459052l-3.092219-8.91204-4.910933-8.275912-3.274059-3.183139-8.003152-5.094023-11.00733-6.353294,2.094665.624393,3.386043-3.607328,10.346635,5.971874c.302754-2.666988,0-4.395407-.909513-5.184005l-.031525-.041928-18.157486-24.149681-3.819892-7.002407c-.026673-.106609-.052931-.213012-.078772-.319209l15.994469,9.231249h21.91767l.363993-6.366279v-8.91204s-3.819892-19.098836-3.819892-19.098836c-1.395357-2.849453-2.880385-5.395215-4.456333-7.639784l-6.365966-5.092773-21.152373-12.20686-8.276018-3.18306-8.912442-1.273474-8.912442,1.273474-7.639281,2.546948-7.002544,4.455284-1.315719,1.315862-17.879806-10.31891-20.644273,4.092862v9.134946s-.949464-.657399-.949464-.657399l-21.149806-12.206739-19.643865,1.273474v14.733055s-.073745,3.417783-.073745,3.417783c-.207824-.258104-.41676-.511458-.626811-.760062l-21.148769-12.206901c-7.154699-3.637961-13.76389-5.668771-19.825701-6.093679-6.609192,2.850632-12.126745,6.124922-16.551723,9.82287l-.810123,1.915586-19.547963-11.283554-23.099991-.363671.529152,16.742755-1.623425-1.352865-21.146217-12.20683c-3.880721-1.454685-7.488689-2.303251-10.822341-2.545698l-12.732239-.637362c-4.00132.607368-7.397458,1.454685-10.185291,2.546948l-8.912442,5.092646-5.729383,7.002232c-.808303,1.677074-1.527955,3.302055-2.158881,4.874941l-3.680935-2.944603-21.144333-12.20686-8.275705-3.18306-8.912442-1.273474-8.912442,1.273474-7.639593,2.546948-7.002232,4.455284-2.24192,2.242042-17.429439-10.062846-23.099678-.363671.208856,6.612134-9.088493-5.247429-25.009577-2.000816-2.364487,3.637961-3.529797,21.950833-.520906-3.287746-1.000121-9.094505-21.140684-12.20676-27.737735,1.364704.545819,11.003864-.22916,7.292731-4.316221-3.452807-21.139362-12.20686-8.276018-3.18306-8.912442-1.273474-8.912442,1.273474-7.638969,2.546948-7.002856,4.455284-1.319859,1.320003-17.875978-10.323051-20.643961,4.092862v9.143955l-.962475-.666407-21.136795-12.206739-19.643865,1.273474v14.733055s-.545507,25.282018-.545507,25.282018l.207312,27.71853-7.764892-53.071053-5.184005-3.729285-21.135443-12.206739-21.917122,1.819605-6.028883,44.518643-.18285-2.663796-1.818714-8.003465-6.820879-12.913773-21.133996-12.207003-12.914075-6.821021-15.460397-3.729191v.637362l-30.102222.727342-.038746,6.007126-9.927843-5.734685-6.36612-.272441-52.110575.272441c-.606743,6.36612-1.000408,13.248377-1.182244,20.644273l2.091421,11.003864,17.338023,10.016407-.240481,37.002147,4.09255,3.727942,8.628847,4.985393-6.082524.835845-6.820708,3.910402v12.549779s-.363671,30.193453-.363671,30.193453l2.182652,18.915898,21.131314,12.210625,22.372583-.454913.909201-36.832934-.63644-34.55962-9.672483-5.588225,5.070202-1.589494,4.238289,2.448626.363993-36.378021.09092-7.729767,4.840923-.691591v13.492311l.636424,7.003481,12.109091,6.995499-6.19756-.993051-6.547955,4.455284v33.831414s-1.818668,22.190188-1.818668,22.190188l1.182244,12.277338-1.000408,8.548146,21.132491,12.210591,28.193029-1.091041-.074021-6.240593,12.533506,7.241651,28.374869.454913-.544982-6.996739,7.701734,4.449727,5.092773,2.455779,19.462516-1.001058c0-3.15584.389388-6.821176,1.16936-10.996879l20.29371,11.724239,20.735709-.544895,2.273314-3.638052-.001202-.00903,7.414155,4.28321,16.097224,1.001058,6.365966-1.273506.196292-11.382627,20.175737,11.655075,19.644044-.818593,1.182586-8.002215,1.182273-3.729285-.259433-2.973609.772749.67618,21.138468,12.210527c3.758654,1.454721,7.244235,2.303308,10.458619,2.545762l12.187037.637378c3.819267-.607383,7.093639-1.454721,9.821866-2.547011l8.548985-5.092773,3.28172-4.211275,20.675559,11.942292,15.278944-1.273506.824998-6.853759,12.180008,7.034974,14.369431-.181215,1.063707-8.44689,12.578051,7.264616,21.736143,2.092099.193322-5.092374,10.23249,5.909718,23.645776-1.091041-.28891-15.642986.909108.795465,21.143439,12.210527c3.758341,1.454721,7.244548,2.303308,10.458931,2.545762l12.186412.637378c3.819892-.607383,7.093639-1.454721,9.822178-2.547011l8.548985-5.092773,5.456766-7.002407c.748795-1.613976,1.42254-3.179706,2.021033-4.69719l3.909119,3.127142,21.145278,12.210506,8.275912,3.183139,8.912665,1.273506,8.912665-1.273506,7.639784-2.547011,7.002719-4.455395,2.538066-2.538342,18.884387,10.904237,23.646089-1.091041-.317538-17.197262c.345927.208843.691418.412879,1.036503.612125l.000989.000571,21.145384,12.208991.001292.000746.001292.000746c5.935031,3.426592,11.730361,5.424009,17.385353,5.9914l.204155.019868c6.789635-1.637186,12.671319-4.487889,17.64349-8.54836.515107-1.011869,1.012162-2.013593,1.491157-3.005172l17.175575,9.916346,16.097537,1.001058,6.366279-1.273506.196071-11.375404,20.175646,11.647852,19.644356-.818593,1.182273-8.002215,1.182273-3.729285-.258332-2.960986.758324.663558,21.15148,12.210527c3.758654,1.454721,7.244548,2.303308,10.458931,2.545762l12.186725.637378c3.81958-.607383,7.093639-1.454721,9.822178-2.547011l8.548672-5.092773Z" mix-blend-mode="darken"/><path d="M274.602524,88.876861l-.363984,37.469375-3.364895,12.277338-6.729791,9.82162c-2.850319,2.546948-6.215527,4.577757-10.094686,6.093679l-9.00336,2.455717-14.641825-4.911435c-2.789395-2.3045-5.426636-5.153882-7.912034-8.548146l-4.456221-11.095094-3.364895-29.37488c.48427-4.304067,1.969573-8.396929,4.456221-12.277338l7.912034-2.455717,3.364895,1.182244c3.637649,1.577158,6.638873,4.032875,9.00336,7.365903l-1.182244,16.006529,4.547139,11.003864,3.364895,2.455717,3.364895-4.911435,2.273569-14.733055-.363671-20.370583,7.457445.818572,6.547955,3.637961,3.273665-4.456534,1.909898,4.820205,4.001632-2.274507Z" fill="#fff" stroke="#231f20" stroke-linejoin="round" stroke-width="2.416744"/><path d="M255.140807,2.481846h15.732838c2.000816,3.697948,3.515488,7.790811,4.547139,12.277338l-.636424,64.023617-4.819892-2.000816-7.002856,6.63856-11.549683-4.728975-.182148-38.832829.545819-1.818356-2.273569-25.736919c1.394073-3.334277,3.273978-6.608567,5.638777-9.82162Z" fill="#fff" stroke="#231f20" stroke-linejoin="round" stroke-width="2.416744"/><path d="M340.867842,94.97054l3.637336,24.191004,4.274698,32.103039-2.273882,3.637961-20.734879.544882-4.365303-23.736103-14.096318-2.090797-.636737,8.548146c-1.577158,6.54858-2.364487,12.064884-2.364487,16.551411l-19.461717,1.001033-5.092958-2.455717,8.09387-61.569149,6.547955,1.910836,7.093774-4.547764,7.912034-1.364704-.454589,12.004897-.90949,6.184909,7.548051,1.182244,6.275202-1.182244-1.273161-13.733272,5.365711,1.455934,7.821117-6.093679,4.274386,4.182843,2.819389,3.27429Z" fill="#fff" stroke="#231f20" stroke-linejoin="round" stroke-width="2.416744"/><polygon points="321.678566 1.389582 326.862129 5.118774 338.412125 84.057906 334.410492 83.148103 325.771116 87.604637 322.133155 83.875446 319.586832 80.511175 315.039693 56.865053 313.311943 59.139559 309.128475 79.692603 302.307454 80.783616 297.578479 86.694834 289.120938 81.783399 299.761131 3.209188 321.678566 1.389582" fill="#fff" stroke="#231f20" stroke-linejoin="round" stroke-width="2.416744"/><path d="M432.239591,86.512374l7.366215-1.545915.818572,27.010393v29.46611l-.545507,14.369384-21.735599-2.092046-1.182244-11.095094h1.182244v-3.637961l-1.182244-3.729191v-3.636711h1.182244v-39.378961l-5.274794,7.093462-5.274481,31.012025-3.092142,24.554675-14.369072.181211-2.455405-39.468941c-1.759306-8.971804-3.396451-18.734687-4.911123-29.28365l-4.455909,6.002448.090605,11.549995-.090605,11.731206v29.46611l-1.182244,9.82162-15.278562,1.273474-5.729383-3.729191-1.182244-38.832829,1.364079-22.371399,7.548363-8.640626,9.457949-8.456916,7.821117,4.274073,2.182652,3.36427,3.455813,2.000816,9.276113-3.000599,3.001224,9.82162,19.552635-4.001632,3.364895-4.910185,10.276834,4.818955Z" fill="#fff" stroke="#231f20" stroke-linejoin="round" stroke-width="2.416744"/><path d="M439.697036,10.575091l-.636737,9.366719.181836,8.549396v29.46611l-.818572,16.642641-6.002136,4.910185-3.728566-6.36612-9.821933,4.092862-10.094686,7.274672-20.098767-10.548962-8.821212.546132-2.910306-4.092862-11.004176-1.728375-2.819389,4.456534-6.093054,3.729191.181836-27.556524,1.091638-34.739967-.545819-11.003864,27.737735-1.364704,1.000096,9.094278,7.002856,44.199165,5.00204,11.731206c2.546323-2.910619,4.031001-5.607534,4.455909-8.093245l8.730607-54.293227,2.364487-3.637961,25.009577,2.000816.636737,7.365903Z" fill="#fff" stroke="#231f20" stroke-linejoin="round" stroke-width="2.416744"/><path d="M508.372142,71.961688l3.456122-1.63711,11.003888-1.727107,2.819408,4.455386,6.093033,3.729093-.181842-27.555284,1.182238-31.921866,1.182238-2.455666-1.182238-8.911846-28.101405-2.091983-2.364477,7.365924-7.002837,44.199121c-2.000555,4.062857-4.36533,7.729488-7.09349,11.003947-1.152259-2.424554-1.940835-4.879028-2.364477-7.365924l-8.185075-51.565046-2.364536-3.638023-26.282393-2.455785-.636773,7.367116v15.915398l1.182238,3.727901v29.4662l.818615,16.642645,8.63965,2.819349,5.456677,6.274875,5.274478,3.910398,15.824388-9.640404,14.550901-3.000654,8.275668-2.910657Z" fill="#fff" stroke="#231f20" stroke-linejoin="round" stroke-width="2.416744"/><path d="M524.924194,82.511955l-9.458264-8.458166-7.821094,4.274081-13.550802,6.548561-9.185234,2.182099-7.821094,6.366064,1.727763,9.821709,2.364775,27.010296,5.820301,24.55475,9.730997-3.091843,2.000853-9.185532,2.364477-27.010415c1.757742-8.971804,2.93998-17.156283,3.546715-24.55475l-4.728953-3.637904,4.728953-2.454474,5.820599,7.365924,2.364536,12.277375-2.364536,11.003828v29.466081l1.182238,9.821709,15.278267,1.273427,5.820301-3.729212,1.182238-38.832799-1.36408-22.37134-7.638955-8.639471Z" fill="#fff" stroke="#231f20" stroke-linejoin="round" stroke-width="2.416744"/><polygon points="470.085134 90.787697 471.813197 98.33606 469.44871 102.064001 470.630953 110.613397 470.630953 131.530112 471.813197 131.530112 471.813197 135.168073 470.630953 138.896014 470.630953 142.533976 471.813197 142.533976 470.630953 153.62907 448.895354 155.721116 448.349535 141.351732 448.349535 111.885622 449.531778 87.330946 459.171876 88.149519 470.085134 90.787697" fill="#fff" stroke="#231f20" stroke-linejoin="round" stroke-width="2.416744"/><path d="M542.597847,97.243797l2.909994-7.184692,11.458765,1.001033,1.000408-4.911435,5.456629,3.45675,5.183563,5.183876.636737,32.284249c3.75856,1.151,11.336917,1.333461,22.736007.546132l1.818668,1.272224.90949,26.19182-50.473742,2.546948-3.273665-4.820205,1.909586-39.923843-1.272849-6.093679,1.000408-9.549179Z" fill="#fff" stroke="#231f20" stroke-linejoin="round" stroke-width="2.416744"/><path d="M578.429452,1.844484l8.09387,2.910619,6.638873-1.091013-.545819,17.824885.545819,1.818356-.727655,6.63856-23.190596.909803v14.550595l.636737,1.819605-.636737.636112,1.182244,12.277338c1.637145.607368,3.485807.999783,5.547547,1.182244h6.184284c2.485086,1.577158,4.304067,4.032875,5.456629,7.365903l1.273161,4.365303-.273066,14.188173-9.730702.08998c-11.459078-2.059553-19.068053-5.697515-22.826613-10.912634l-4.547139,5.092646-6.911939-3.09183-2.364487-4.728975.090918-28.556308-1.000408-5.366336,1.000408-21.644057.636737-7.912034-.636737-1.909586,3.001224-5.275106,31.284466-.636112h1.818981v-.546132Z" fill="#fff" stroke="#231f20" stroke-linejoin="round" stroke-width="2.416744"/><path d="M608.844107,84.602788c6.85039-1.939579,11.186012-1.151,13.00468,2.364487,2.969981,1.15225,4.970797,3.637961,6.002448,7.457133l-.363671,12.551028.545507,3.727942-.545507,1.182244.545507,13.642042,1.818981,1.818356c1.636833-1.272224,3.212741-2.940612,4.728975-5.001415,1.454997-3.030593,2.455405-6.698547,3.001224-11.003864l1.182244-13.09591-2.182652-12.549779,5.001728-1.183493,5.092958-7.457133c3.819484,1.15225,6.577636,3.18306,8.275705,6.093679,3.151817.242447,6.516712,1.06102,10.094686,2.455717l1.000408,11.458765-1.72775,26.555491-3.092142,11.186324c-.727655,3.09183-2.152971,7.912034-4.274386,14.459365l-12.004584,7.002232-8.730294,2.546948-32.467022-2.273257c-1.152563-3.637961-1.759306-7.79206-1.818668-12.459798v-11.095094c.302434-.606119.514263-1.454685.636424-2.545698l-.636424-11.641226.636424-5.001415-.636424-1.273474-1.364079-24.918346,8.275705-3.001849Z" fill="#fff" stroke="#231f20" stroke-linejoin="round" stroke-width="2.416744"/><path d="M665.865492,74.326266l-7.275297-.818572-4.365303-3.09183c-4.062869-.604869-7.154699.303684-9.276426,2.728158l-6.275202,2.455717.09123-17.733654.545507-1.819605v-9.91285l-2.273569-6.819771-3.637649-5.638777-4.183468-1.819605-1.72775,1.182244.909178,36.559572-.545507,2.455717.545507,6.183659-5.911218,1.910836-9.731015.817323-6.456725-5.637528-4.09255,4.365303-.545819-6.36612.636737-5.638777-.363671-29.647321.636424-8.730607V7.574491l2.182652-5.457567,8.548771.273691,11.186012.908553,7.093462-.636112c2.546323.061237,5.334468.454901,8.366936,1.182244l11.822436,6.274889,4.820205,4.365303,4.183468,5.547547,1.72775,7.457133c.484582,2.425724.878247,5.125139,1.182244,8.094495l3.001224,16.096509-.818572,22.645089Z" fill="#fff" stroke="#231f20" stroke-linejoin="round" stroke-width="2.416744"/><path d="M2.390615,200.833833l52.110575-.272441,6.36612.272441c1.332836,5.761251,2.091421,13.065917,2.273257,21.917747l-4.365303,9.185508-14.005088,2.000816-.090918,7.729574-.363984,36.377112-3.637336-2.636928-10.731423,3.36427-5.456629,4.456534-4.09255-3.727942.273066-42.015889-1.091638-2.455717-2.182652-2.455717-14.096318-.09123-2.091421-11.003864c.181836-7.395896.5755-14.278154,1.182244-20.644273Z" fill="#fff" stroke="#231f20" stroke-linejoin="round" stroke-width="2.416744"/><polygon points="44.679258 282.773565 45.315682 317.332321 44.406504 354.164334 22.034481 354.619235 19.851829 335.703337 20.2155 305.509884 20.2155 292.960106 27.036209 289.049704 38.949875 287.412559 44.679258 282.773565" fill="#fff" stroke="#231f20" stroke-linejoin="round" stroke-width="2.416744"/><path d="M113.57713,275.771333c3.456126.303684,8.062939.516138,13.823565.636112.848254,1.395947,1.909898,3.851665,3.18306,7.367152,2.485399,1.879592,4.547139,4.546514,6.183972,8.003265l.181836,9.275489.636737,45.56262.545507,7.003481-28.37416-.454901-2.000504-7.822054v-30.102222l-.636737-.636112c2.728158-16.3702-.940734-23.523649-11.004176-21.462846l.545819,5.366336.636424,53.655865-28.192324,1.091013,1.000408-8.548146-1.182244-12.277338,1.818668-22.190188v-33.831414l6.547955-4.455284,14.187236,2.273257,22.098958,1.545915Z" fill="#fff" stroke="#231f20" stroke-linejoin="round" stroke-width="2.416744"/><path d="M70.833899,200.561392l30.102222-.727342v-.637362l15.460397,3.729191,12.914075,6.821021,6.820708,12.91345,1.818668,8.003265,1.273474,18.552227-.636737,9.185508-3.728566,6.183659-3.364895,4.092862-10.549587-.363671c-2.122977-.666106-4.396547-1.05977-6.820708-1.182244-2.182652,1.031026-4.638057,1.849599-7.366215,2.455717l-15.642233-6.729791c-2.000816.788579-4.274698,1.394698-6.821021,1.818356l-12.914075,1.273474-.636424-7.003481v-44.289146l.090918-14.095693ZM97.38939,224.115035l.090918,36.104671c8.244775-.423658,12.6257-5.092646,13.141213-14.004463.514576-8.913067-.440529-14.701812-2.864379-17.371233.059362-3.030593-3.396451-4.606501-10.367752-4.728975Z" fill="#fff" stroke="#231f20" stroke-linejoin="round" stroke-width="2.416744"/><path d="M206.402001,292.777645l3.637961,24.191004,4.274073,32.103039-2.273257,3.637961-20.735191.544882-4.365303-23.736103-14.096318-2.090797-.636424,8.548146c-1.57747,6.54858-2.364487,12.064884-2.364487,16.551411l-19.46203,1.001033-5.092646-2.455717,8.09387-61.569149,6.547955,1.910836,7.093462-4.547764,7.912034-1.364704-.454901,12.004897-.909178,6.184909,7.548363,1.182244,6.274889-1.182244-1.273161-13.733272,5.365711,1.455934,7.821117-6.093679,4.274386,4.182843,2.819076,3.27429Z" fill="#fff" stroke="#231f20" stroke-linejoin="round" stroke-width="2.416744"/><polygon points="187.213037 199.196688 192.396913 202.92588 203.946596 281.865012 199.945276 280.955209 191.305587 285.411743 187.667938 281.682551 185.121303 278.318281 180.574164 254.672159 178.846101 256.946665 174.662946 277.499708 167.842237 278.590722 163.113263 284.50194 154.655097 279.590505 165.295915 201.016294 187.213037 199.196688" fill="#fff" stroke="#231f20" stroke-linejoin="round" stroke-width="2.416744"/><polygon points="284.841241 289.139684 284.568488 302.144364 285.387061 327.245171 286.569304 340.795983 285.387061 344.525174 284.204504 352.527189 264.560952 353.345761 258.740651 340.795983 250.555551 306.600898 244.098826 288.958474 244.462497 302.599266 244.826169 316.150077 244.189432 353.07332 237.823625 354.346794 221.726803 353.345761 221.635572 348.161885 220.453329 303.872739 220.817 284.41071 230.821081 280.136637 250.010044 281.31888 253.738611 286.411526 277.384108 291.04927 284.841241 289.139684" fill="#fff" stroke="#231f20" stroke-linejoin="round" stroke-width="2.416744"/><path d="M221.635572,200.470162l19.643865-1.273474,3.546731,2.455717,5.729383,16.006529,3.546731,18.460997c.545819,5.336343,1.69682,10.671436,3.456126,16.006529l6.093054,11.458765.818572-10.186541-1.091326-7.365903,1.091326-16.006529-1.091326-3.727942v-23.372432l20.643961-4.092862,1.364392,18.825918-.090918,56.111582-11.549995,4.365303-7.820804,5.547547-12.550403-7.820804-8.09387,2.636928-16.552036-3.36427-7.638969,5.637528.272753-3.819172-.272753-36.468342.545507-25.282018v-14.733055Z" fill="#fff" stroke="#231f20" stroke-linejoin="round" stroke-width="2.416744"/><path d="M315.223091,277.499708l-5.638465-.909803-3.455813-5.092646c-1.334398-2.485711-5.062965-9.063035-11.186012-19.734471l-2.364487-8.913067,1.72775-21.007944,3.18306-8.275705,5.729383-5.730007,7.002856-4.455284,7.638969-2.546948,8.912442-1.273474,8.912442,1.273474,8.276018,3.18306,6.36612,5.092646c1.575596,2.244513,3.060899,4.790211,4.456221,7.639593l3.819797,19.098359v8.911817l-.363984,6.36612h-21.917435l-1.273161-3.819172v-10.185291l-1.909898-9.549179-9.549179-1.273474c-1.818668,1.759618-3.304908,4.092862-4.455909,7.002232.059362,2.789395.48427,5.761251,1.273161,8.913067l3.819484,7.002232,18.188556,24.191004c.909803.788579,1.212237,2.516954.909803,5.183876l-9.549179-6.821021-4.183468,4.456534-9.457949-2.819389-4.911123,4.092862Z" fill="#fff" stroke="#231f20" stroke-linejoin="round" stroke-width="2.416744"/><path d="M330.865636,353.891893l-12.186732-.637362c-3.214303-.242447-6.699797-1.091013-10.458357-2.545698l-7.275297-6.36612c-3.335214-4.42654-5.760938-12.581022-7.27561-24.463445v-13.733272l10.276522-1.272224,2.455405.636112,8.003265.636112v4.456534l1.182244,10.822653c2.969669,6.304883,7.548363,8.7606,13.732335,7.365903,4.424978-3.09183,5.759064-7.457133,4.00132-13.09591l-2.819076-10.731423-10.094686-11.185075-7.18438-10.822653,5.729383,2.819389,9.185196-3.820422h10.367439l8.003265,5.093895,3.273665,3.18306,4.911123,8.275705,3.092142,8.911817c.787017,3.335527,1.394073,7.154699,1.818668,11.458765-.060924,3.213053-.454589,6.821021-1.182244,10.822653-.90949,2.969356-2.152971,6.152416-3.728566,9.549179l-5.456629,7.002232-8.548771,5.092646c-2.728158,1.092263-6.002448,1.939579-9.82162,2.546948Z" fill="#fff" stroke="#231f20" stroke-linejoin="round" stroke-width="2.416744"/><path d="M443.582756,284.31948l7.366215-1.545915.818572,27.010393v29.46611l-.545507,14.369384-21.735599-2.092046-1.182244-11.095094h1.182244v-3.637961l-1.182244-3.729191v-3.636711h1.182244v-39.378961l-5.274794,7.093462-5.274481,31.012025-3.092142,24.554675-14.369072.181211-2.455405-39.468941c-1.759306-8.971804-3.396451-18.734687-4.911123-29.28365l-4.455909,6.002448.090605,11.549995-.090605,11.731206v29.46611l-1.182244,9.82162-15.278562,1.273474-5.729383-3.729191-1.182244-38.832829,1.364079-22.371399,7.548363-8.640626,9.457949-8.456916,7.821117,4.274073,2.182652,3.36427,3.455813,2.000816,9.276113-3.000599,3.001224,9.82162,19.552635-4.001632,3.364895-4.910185,10.276834,4.818955Z" fill="#fff" stroke="#231f20" stroke-linejoin="round" stroke-width="2.416744"/><path d="M451.040201,208.382196l-.636737,9.366719.181836,8.549396v29.46611l-.818572,16.642641-6.002136,4.910185-3.728566-6.36612-9.821933,4.092862-10.094686,7.274672-20.098767-10.548962-8.821212.546132-2.910306-4.092862-11.004176-1.728375-2.819389,4.456534-6.093054,3.729191.181836-27.556524,1.091638-34.739967-.545819-11.003864,27.737735-1.364704,1.000096,9.094278,7.002856,44.199165,5.00204,11.731206c2.546323-2.910619,4.031001-5.607534,4.455909-8.093245l8.730607-54.293227,2.364487-3.637961,25.009577,2.000816.636737,7.365903Z" fill="#fff" stroke="#231f20" stroke-linejoin="round" stroke-width="2.416744"/><polygon points="459.283101 199.65159 482.38278 200.015261 484.565432 214.565856 483.473793 218.022606 484.838185 272.407063 480.836553 275.043991 465.648909 270.496227 460.919934 271.58849 459.828921 216.931593 459.283101 199.65159" fill="#fff" stroke="#231f20" stroke-linejoin="round" stroke-width="2.416744"/><polygon points="484.019612 284.41071 485.292774 353.345761 461.647589 354.436775 459.828921 331.064343 462.01126 310.238859 460.919934 288.776013 463.739323 279.772965 478.472065 285.684184 484.019612 284.41071" fill="#fff" stroke="#231f20" stroke-linejoin="round" stroke-width="2.416744"/><path d="M514.058411,277.499708l-5.638465-.909803-3.455813-5.092646c-1.334086-2.485711-5.062965-9.063035-11.186012-19.734471l-2.364487-8.913067,1.728063-21.007944,3.182747-8.275705,5.729695-5.730007,7.002232-4.455284,7.639593-2.546948,8.912442-1.273474,8.912442,1.273474,8.275705,3.18306,6.36612,5.092646c1.575908,2.244513,3.060586,4.790211,4.456221,7.639593l3.819484,19.098359v8.911817l-.363671,6.36612h-21.917435l-1.273161-3.819172v-10.185291l-1.909586-9.549179-9.549179-1.273474c-1.818981,1.759618-3.305533,4.092862-4.456534,7.002232.059987,2.789395.484895,5.761251,1.273474,8.913067l3.819797,7.002232,18.188556,24.191004c.909178.788579,1.212237,2.516954.909178,5.183876l-9.548867-6.821021-4.183468,4.456534-9.458261-2.819389-4.91081,4.092862Z" fill="#fff" stroke="#231f20" stroke-linejoin="round" stroke-width="2.416744"/><path d="M529.700644,353.891893l-12.186107-.637362c-3.214303-.242447-6.700422-1.091013-10.45867-2.545698l-7.27561-6.36612c-3.334902-4.42654-5.760626-12.581022-7.275297-24.463445v-13.733272l10.276522-1.272224,2.455405.636112,8.002952.636112v4.456534l1.182244,10.822653c2.969981,6.304883,7.548363,8.7606,13.732647,7.365903,4.424978-3.09183,5.759376-7.457133,4.001632-13.09591l-2.819389-10.731423-10.094686-11.185075-7.184692-10.822653,5.729383,2.819389,9.185508-3.820422h10.367439l8.002952,5.093895,3.27429,3.18306,4.91081,8.275705,3.09183,8.911817c.787329,3.335527,1.394073,7.154699,1.818981,11.458765-.061237,3.213053-.454589,6.821021-1.182244,10.822653-.909178,2.969356-2.152658,6.152416-3.728566,9.549179l-5.456629,7.002232-8.548771,5.092646c-2.728471,1.092263-6.002136,1.939579-9.821933,2.546948Z" fill="#fff" stroke="#231f20" stroke-linejoin="round" stroke-width="2.416744"/><path d="M594.607819,199.65159l12.732239.637362c3.333652.242447,6.94162,1.091013,10.822341,2.545698l7.639281,6.36612,5.092646,7.639593c.969165,2.970606,1.818981,6.578573,2.546323,10.821403l.636737,2.546948-.636737,7.002232v1.910836l.636737,4.455284-.636737,1.909586v1.910836l-10.822028,1.272224-2.546323-.636112-8.276018-.636112v-4.456534l-1.273161-10.822653c-1.273161-2.849382-3.607968-4.970172-7.002544-6.36612-2.910306.424908-5.881537,1.273474-8.912755,2.546948l-3.182747,3.819172.636424,5.730007c1.091638,2.668171,2.576316,5.426323,4.456534,8.275705,1.636833,2.545698,3.546731,5.092646,5.729383,7.639593l6.36612,6.36487,7.638969,5.730007c2.242639,2.062053,4.152225,4.607751,5.729383,7.639593-.909178,3.153066-3.243984,5.062652-7.002544,5.728758-2.728471,1.455934-5.911218,2.728158-9.548867,3.820422-1.455309-.546132-3.153379-.96979-5.092958-1.273474l-5.729695,1.273474-8.275705-5.092646-11.458765-14.643075-5.092646-8.275705-3.18306-8.911817c-.849816-3.334277-1.486553-7.153449-1.909898-11.458765.059675-3.213053.484582-6.821021,1.273161-10.822653.909178-2.969356,2.182652-6.152416,3.819797-9.549179l5.729383-7.002232,8.912442-5.092646c2.787833-1.092263,6.183972-1.939579,10.185291-2.546948Z" fill="#fff" stroke="#231f20" stroke-linejoin="round" stroke-width="2.416744"/><path d="M620.072297,288.139901c2.848757.849816,4.970485,2.759402,6.36612,5.728758,1.332836,2.486961,2.394168,5.245113,3.18306,8.275705l2.546323,8.913067-1.909898,21.007944-3.18306,8.275705-5.729383,5.730007-7.002544,4.455284-7.639593,2.546948-8.912442,1.273474-8.912442-1.273474-8.275705-3.18306-6.36612-5.092646c-1.577158-2.244513-3.062148-4.790211-4.455909-7.639593l-3.819797-19.098359v-8.911817l-.636737-1.909586c.605494-2.485711,2.303563-4.184093,5.092958-5.093895l17.824885.637362,1.273161,3.819172v10.186541l1.909898,9.54793,9.548867,1.273474c1.818981-1.758369,3.303971-4.091613,4.456534-7.002232-.061237-2.788145-.486145-5.760001-1.273474-8.913067l-3.819484-7.002232-10.185604-12.732239c-.90949-.787329-1.545915-1.848349-1.909898-3.18306l6.365807.637362,7.639593,3.819172,10.185604-1.273474,7.639281-3.819172Z" fill="#fff" stroke="#231f20" stroke-linejoin="round" stroke-width="2.416744"/><polygon points="640.402888 199.65159 663.502879 200.015261 665.685531 214.565856 664.593893 218.022606 665.957972 272.407063 661.956964 275.043991 646.769008 270.496227 642.040033 271.58849 640.94902 216.931593 640.402888 199.65159" fill="#fff" stroke="#231f20" stroke-linejoin="round" stroke-width="2.416744"/><polygon points="665.140024 284.41071 666.412873 353.345761 642.767376 354.436775 640.94902 331.064343 643.131672 310.238859 642.040033 288.776013 644.859422 279.772965 659.592477 285.684184 665.140024 284.41071" fill="#fff" stroke="#231f20" stroke-linejoin="round" stroke-width="2.416744"/><path d="M732.879397,283.865828l.545819,18.460997-1.091326,12.91345-1.091326,12.823469c-1.818981,5.698764-4.396547,11.822436-7.730199,18.371016-4.972047,4.06037-10.853584,6.911001-17.643049,8.548146-6.427356-.606119-13.036236-3.061836-19.825701-7.365903-3.273978-4.670237-6.215527-10.367752-8.821525-17.097542-1.818981-7.154699-2.910306-15.30793-3.273978-24.463445l-.818572-7.639593.818572-10.458982,7.18438-2.182027,8.730607,3.727942,4.820205-1.637145,3.09183,1.001033.273066,3.455501.090918,13.733272c.363671,4.910185,1.121007,10.216535,2.273569,15.914049l5.456629,2.455717,4.456221-13.459581-1.091326-9.82162,1.091326-12.277338-.272753-3.27429,5.183563,4.184093,8.094182-5.911218,4.00132,2.636928,5.547547-2.636928Z" fill="#fff" stroke="#231f20" stroke-linejoin="round" stroke-width="2.416744"/><path d="M700.412688,199.560359c6.061811.424908,12.671002,2.455717,19.825701,6.093679,3.637649,4.305316,6.941307,10.035324,9.91285,17.188773,1.273161,7.51837,2.000504,16.066516,2.182652,25.645689l1.000408,27.646505-6.36612,2.455717-8.457853-.454901-2.182652,4.820205-6.729791-.909803-.363671-32.284249,1.091326-8.640626-1.091326-2.364487-1.182244-3.727942-6.547955-2.455717c-2.425724,6.729791-3.910714,14.491857-4.456221,23.281202l.90949,22.008977-17.461214,3.09183-6.638873-6.183659.090918-21.372865c0-7.940778.727655-16.520168,2.182652-25.736919l7.730199-18.278536c4.424978-3.697948,9.942531-6.972238,16.551723-9.82287Z" fill="#fff" stroke="#231f20" stroke-linejoin="round" stroke-width="2.416744"/><polygon points="805.293382 289.139684 805.020629 302.144364 805.839201 327.245171 807.021445 340.795983 805.839201 344.525174 804.656958 352.527189 785.013092 353.345761 779.192792 340.795983 771.007692 306.600898 764.550967 288.958474 764.914638 302.599266 765.278309 316.150077 764.641885 353.07332 758.275765 354.346794 742.178631 353.345761 742.087713 348.161885 740.90547 303.872739 741.269453 284.41071 751.273221 280.136637 770.462185 281.31888 774.190752 286.411526 797.836249 291.04927 805.293382 289.139684" fill="#fff" stroke="#231f20" stroke-linejoin="round" stroke-width="2.416744"/><path d="M742.087713,200.470162l19.643865-1.273474,3.546731,2.455717,5.729383,16.006529,3.547043,18.460997c.545507,5.336343,1.696507,10.671436,3.455813,16.006529l6.093054,11.458765.818572-10.186541-1.091326-7.365903,1.091326-16.006529-1.091326-3.727942v-23.372432l20.644273-4.092862,1.364079,18.825918-.090918,56.111582-11.549995,4.365303-7.821117,5.547547-12.550091-7.820804-8.09387,2.636928-16.551723-3.36427-7.639281,5.637528.272753-3.819172-.272753-36.468342.545507-25.282018v-14.733055Z" fill="#fff" stroke="#231f20" stroke-linejoin="round" stroke-width="2.416744"/><path d="M835.675231,277.499708l-5.638465-.909803-3.456126-5.092646c-1.334086-2.485711-5.062965-9.063035-11.186012-19.734471l-2.364487-8.913067,1.728063-21.007944,3.18306-8.275705,5.729383-5.730007,7.002544-4.455284,7.639281-2.546948,8.912442-1.273474,8.912442,1.273474,8.276018,3.18306,6.365807,5.092646c1.575908,2.244513,3.060899,4.790211,4.456221,7.639593l3.819797,19.098359v8.911817l-.363984,6.36612h-21.917122l-1.273161-3.819172v-10.185291l-1.909898-9.549179-9.549179-1.273474c-1.818668,1.759618-3.305221,4.092862-4.456221,7.002232.059675,2.789395.484582,5.761251,1.273161,8.913067l3.819797,7.002232,18.188556,24.191004c.90949.788579,1.212237,2.516954.90949,5.183876l-9.549179-6.821021-4.183155,4.456534-9.458261-2.819389-4.91081,4.092862Z" fill="#fff" stroke="#231f20" stroke-linejoin="round" stroke-width="2.416744"/><path d="M851.317464,353.891893l-12.18642-.637362c-3.214303-.242447-6.70011-1.091013-10.45867-2.545698l-7.275297-6.36612c-3.335214-4.42654-5.760626-12.581022-7.27561-24.463445v-13.733272l10.276834-1.272224,2.455405.636112,8.002952.636112v4.456534l1.182244,10.822653c2.969981,6.304883,7.548363,8.7606,13.732335,7.365903,4.424978-3.09183,5.759376-7.457133,4.001632-13.09591l-2.819389-10.731423-10.094686-11.185075-7.18438-10.822653,5.729383,2.819389,9.185196-3.820422h10.367752l8.002952,5.093895,3.273978,3.18306,4.91081,8.275705,3.092142,8.911817c.787329,3.335527,1.394073,7.154699,1.818981,11.458765-.061237,3.213053-.454901,6.821021-1.182244,10.822653-.90949,2.969356-2.152971,6.152416-3.728879,9.549179l-5.456629,7.002232-8.548459,5.092646c-2.728471,1.092263-6.002448,1.939579-9.821933,2.546948Z" fill="#fff" stroke="#231f20" stroke-linejoin="round" stroke-width="2.416744"/></g></g></g></svg>